<?xml version="1.0" encoding="UTF-8" standalone="no"?>
<svg
   xmlns:dc="http://purl.org/dc/elements/1.1/"
   xmlns:cc="http://creativecommons.org/ns#"
   xmlns:rdf="http://www.w3.org/1999/02/22-rdf-syntax-ns#"
   xmlns:svg="http://www.w3.org/2000/svg"
   xmlns="http://www.w3.org/2000/svg"
   xmlns:sodipodi="http://sodipodi.sourceforge.net/DTD/sodipodi-0.dtd"
   xmlns:inkscape="http://www.inkscape.org/namespaces/inkscape"
   version="1.1"
   id="Ebene_1"
   x="0px"
   y="0px"
   viewBox="-70 61.5 141.7 18.2"
   style="enable-background:new -70 61.5 141.7 18.2;"
   xml:space="preserve"
   sodipodi:docname="cf_logo_white.svg"
   inkscape:version="1.0 (4035a4fb49, 2020-05-01)"><metadata
   id="metadata41"><rdf:RDF><cc:Work
       rdf:about=""><dc:format>image/svg+xml</dc:format><dc:type
         rdf:resource="http://purl.org/dc/dcmitype/StillImage" /></cc:Work></rdf:RDF></metadata><defs
   id="defs39">
	
	
<inkscape:path-effect
   effect="skeletal"
   id="path-effect857"
   is_visible="true"
   lpeversion="1"
   pattern="m -42.645679,65.636601 c 0,-0.173417 0.140744,-0.314161 0.314161,-0.314161 0.173417,0 0.314162,0.140744 0.314162,0.314161 0,0.173417 -0.140745,0.314162 -0.314162,0.314162 -0.173417,0 -0.314161,-0.140745 -0.314161,-0.314162 z"
   copytype="single_stretched"
   prop_scale="0.65"
   scale_y_rel="false"
   spacing="0"
   normal_offset="0"
   tang_offset="0"
   prop_units="false"
   vertical_pattern="false"
   hide_knot="false"
   fuse_tolerance="0" /><inkscape:path-effect
   effect="skeletal"
   id="path-effect861"
   is_visible="true"
   lpeversion="1"
   pattern="m -42.645679,65.636601 c 0,-0.173417 0.140744,-0.314161 0.314161,-0.314161 0.173417,0 0.314162,0.140744 0.314162,0.314161 0,0.173417 -0.140745,0.314162 -0.314162,0.314162 -0.173417,0 -0.314161,-0.140745 -0.314161,-0.314162 z"
   copytype="single_stretched"
   prop_scale="1"
   scale_y_rel="false"
   spacing="0"
   normal_offset="0"
   tang_offset="-1.9"
   prop_units="false"
   vertical_pattern="false"
   hide_knot="false"
   fuse_tolerance="0" /><inkscape:path-effect
   effect="skeletal"
   id="path-effect865"
   is_visible="true"
   lpeversion="1"
   pattern="m -42.645679,65.636601 c 0,-0.173417 0.140744,-0.314161 0.314161,-0.314161 0.173417,0 0.314162,0.140744 0.314162,0.314161 0,0.173417 -0.140745,0.314162 -0.314162,0.314162 -0.173417,0 -0.314161,-0.140745 -0.314161,-0.314162 z"
   copytype="single_stretched"
   prop_scale="1"
   scale_y_rel="false"
   spacing="0"
   normal_offset="0"
   tang_offset="0"
   prop_units="false"
   vertical_pattern="false"
   hide_knot="false"
   fuse_tolerance="0" /><inkscape:path-effect
   effect="skeletal"
   id="path-effect873"
   is_visible="true"
   lpeversion="1"
   pattern="m -42.645679,65.636601 c 0,-0.173417 0.140744,-0.314161 0.314161,-0.314161 0.173417,0 0.314162,0.140744 0.314162,0.314161 0,0.173417 -0.140745,0.314162 -0.314162,0.314162 -0.173417,0 -0.314161,-0.140745 -0.314161,-0.314162 z"
   copytype="single_stretched"
   prop_scale="0.73"
   scale_y_rel="false"
   spacing="0"
   normal_offset="0"
   tang_offset="0"
   prop_units="false"
   vertical_pattern="false"
   hide_knot="false"
   fuse_tolerance="0" /><inkscape:path-effect
   effect="skeletal"
   id="path-effect913"
   is_visible="true"
   lpeversion="1"
   pattern="m -42.645679,65.636601 c 0,-0.173417 0.140744,-0.314161 0.314161,-0.314161 0.173417,0 0.314162,0.140744 0.314162,0.314161 0,0.173417 -0.140745,0.314162 -0.314162,0.314162 -0.173417,0 -0.314161,-0.140745 -0.314161,-0.314162 z"
   copytype="single_stretched"
   prop_scale="0.32"
   scale_y_rel="false"
   spacing="0"
   normal_offset="0"
   tang_offset="0"
   prop_units="false"
   vertical_pattern="false"
   hide_knot="false"
   fuse_tolerance="0" /><inkscape:path-effect
   effect="skeletal"
   id="path-effect921"
   is_visible="true"
   lpeversion="1"
   pattern="m -42.645679,65.636601 c 0,-0.173417 0.140744,-0.314161 0.314161,-0.314161 0.173417,0 0.314162,0.140744 0.314162,0.314161 0,0.173417 -0.140745,0.314162 -0.314162,0.314162 -0.173417,0 -0.314161,-0.140745 -0.314161,-0.314162 z"
   copytype="single_stretched"
   prop_scale="0.4"
   scale_y_rel="false"
   spacing="0"
   normal_offset="0"
   tang_offset="0"
   prop_units="false"
   vertical_pattern="false"
   hide_knot="false"
   fuse_tolerance="0" /><inkscape:path-effect
   effect="skeletal"
   id="path-effect929"
   is_visible="true"
   lpeversion="1"
   pattern="m -42.645679,65.636601 c 0,-0.173417 0.140744,-0.314161 0.314161,-0.314161 0.173417,0 0.314162,0.140744 0.314162,0.314161 0,0.173417 -0.140745,0.314162 -0.314162,0.314162 -0.173417,0 -0.314161,-0.140745 -0.314161,-0.314162 z"
   copytype="single_stretched"
   prop_scale="0.31"
   scale_y_rel="false"
   spacing="0"
   normal_offset="0"
   tang_offset="0"
   prop_units="false"
   vertical_pattern="false"
   hide_knot="false"
   fuse_tolerance="0" /><inkscape:path-effect
   effect="skeletal"
   id="path-effect960"
   is_visible="true"
   lpeversion="1"
   pattern="m -43.198231,65.787297 c 0,-0.173417 0.140744,-0.314161 0.314161,-0.314161 0.173418,0 0.314162,0.140744 0.314162,0.314161 0,0.173417 -0.140744,0.314162 -0.314162,0.314162 -0.173417,0 -0.314161,-0.140745 -0.314161,-0.314162 z"
   copytype="single_stretched"
   prop_scale="0.4"
   scale_y_rel="false"
   spacing="0"
   normal_offset="0"
   tang_offset="0"
   prop_units="false"
   vertical_pattern="false"
   hide_knot="false"
   fuse_tolerance="0" /><inkscape:path-effect
   effect="skeletal"
   id="path-effect3076"
   is_visible="true"
   lpeversion="1"
   pattern="m -37.593986,84.878081 c -0.162279,-0.115682 -0.200097,-0.341274 -0.08441,-0.503554 0.115681,-0.162279 0.341273,-0.200097 0.503553,-0.08442 0.162279,0.115683 0.200097,0.341274 0.08441,0.503553 -0.115681,0.16228 -0.341273,0.200098 -0.503553,0.08442 z"
   copytype="single_stretched"
   prop_scale="0.5"
   scale_y_rel="false"
   spacing="0"
   normal_offset="0"
   tang_offset="0"
   prop_units="false"
   vertical_pattern="false"
   hide_knot="false"
   fuse_tolerance="0" /></defs><sodipodi:namedview
   inkscape:document-rotation="0"
   pagecolor="#ffffff"
   bordercolor="#666666"
   borderopacity="1"
   objecttolerance="10"
   gridtolerance="10"
   guidetolerance="10"
   inkscape:pageopacity="0"
   inkscape:pageshadow="2"
   inkscape:window-width="1920"
   inkscape:window-height="1017"
   id="namedview37"
   showgrid="false"
   inkscape:zoom="8.0129536"
   inkscape:cx="45.068513"
   inkscape:cy="-4.0926924"
   inkscape:window-x="-8"
   inkscape:window-y="-8"
   inkscape:window-maximized="1"
   inkscape:current-layer="Ebene_1" />
<style
   type="text/css"
   id="style2">
	.st0{fill:#FFBB00;}
	.st1{fill:#424242;}
	.st2{fill:#3A3A3A;}
</style>

<g
   id="g927"><path
     sodipodi:nodetypes="cccc"
     inkscape:original-d="m -33.578806,74.640472 c -2.812991,0.971152 -6.488821,4.051466 -8.438973,2.913456 0.691381,-2.18463 1.771174,-4.11032 3.466007,-5.625983 2.636726,-1.228319 3.735928,-0.74828 5.249242,-0.728363"
     inkscape:path-effect="#path-effect857"
     id="path855"
     d="m -33.578806,74.640472 c 0.02402,0.06958 -1.730432,1.011555 -4.465846,2.403713 -0.627095,0.320679 -1.375942,0.678569 -2.186122,0.861254 -0.59665,0.101186 -1.314463,0.08423 -1.934436,-0.294662 0.142083,-0.466938 0.30877,-0.938818 0.502832,-1.408889 0.766605,-1.856924 1.81394,-3.336339 3.01388,-4.420679 0,0 10e-7,0 10e-7,0 1.190838,-0.543686 2.212575,-0.792214 3.137757,-0.809994 1.41618,-0.01912 2.208827,0.181496 2.20821,0.228367 -6.17e-4,0.04687 -0.849416,-0.0685 -2.198473,0.02055 -0.87934,0.0529 -1.820329,0.315302 -2.954043,0.854546 0,0 0,0 0,0 -1.150123,1.017285 -2.156038,2.380561 -2.913143,4.10811 -0.191675,0.43736 -0.35823,0.877482 -0.50216,1.314288 0.440011,0.239692 1.034394,0.17005 1.55703,0.02822 0.754246,-0.157035 1.48579,-0.492687 2.114257,-0.793209 2.71885,-1.306325 4.596233,-2.161197 4.620256,-2.091614 z"
     style="fill:#000000;fill-opacity:1;stroke:none;stroke-width:0;stroke-linecap:butt;stroke-linejoin:miter;stroke-miterlimit:4;stroke-dasharray:none;stroke-opacity:1" /><path
     inkscape:original-d="m -32.900674,72.003294 10.272439,-5.023199"
     inkscape:path-effect="#path-effect861"
     id="path859"
     d="m -34.607531,72.837943 c -0.07618,-0.155789 2.545348,-1.59438 5.851631,-3.211145 3.306283,-1.616765 6.051485,-2.802492 6.127665,-2.646704 0.07618,0.155789 -2.545367,1.594391 -5.85165,3.211155 -3.306283,1.616765 -6.051466,2.802482 -6.127646,2.646694 z"
     style="fill:#000000;stroke:none;stroke-width:0.0166243px;stroke-linecap:butt;stroke-linejoin:miter;stroke-opacity:1" /><path
     inkscape:original-d="m -37.748061,77.704623 5.148778,-2.612063 h -1.758119"
     inkscape:path-effect="#path-effect865"
     id="path863"
     d="m -37.748061,77.704623 c -0.07846,-0.154654 1.383163,-0.956609 3.26255,-1.79008 0.667132,-0.295859 1.294762,-0.568286 1.826102,-0.807604 -1.007479,0.148025 -1.697993,0.09748 -1.697993,-0.01438 0,-0.111859 0.713338,-0.162405 1.818244,-0.01438 -0.505374,0.286625 -1.105825,0.637225 -1.754792,1.009045 -1.828212,1.047458 -3.375653,1.77205 -3.454111,1.617397 z"
     style="fill:#000000;stroke:none;stroke-width:0.0166243px;stroke-linecap:butt;stroke-linejoin:miter;stroke-opacity:1" /><path
     inkscape:original-d="m -48.397241,75.067445 20.04256,-9.845469"
     inkscape:path-effect="#path-effect873"
     id="path871"
     d="m -48.397241,75.067445 c -0.05582,-0.113626 4.388406,-2.411223 9.920148,-5.12857 5.531742,-2.717347 10.066596,-4.830525 10.122412,-4.716899 0.05582,0.113625 -4.388438,2.411238 -9.92018,5.128585 -5.531742,2.717348 -10.066564,4.830509 -10.12238,4.716884 z"
     style="fill:#000000;stroke:none;stroke-width:0.0166243px;stroke-linecap:butt;stroke-linejoin:miter;stroke-opacity:1" /><path
     inkscape:original-d="m -37.385265,76.682696 0.867409,0.279809"
     inkscape:path-effect="#path-effect913"
     id="path911"
     d="m -37.385265,76.682696 c 0.01704,-0.05281 0.225163,-0.033 0.464568,0.04423 0.239404,0.07723 0.419878,0.182768 0.402842,0.235582 -0.01704,0.05281 -0.225165,0.033 -0.464569,-0.04423 -0.239405,-0.07723 -0.419878,-0.182768 -0.402841,-0.235581 z"
     style="fill:#000000;stroke:none;stroke-width:0.0166243px;stroke-linecap:butt;stroke-linejoin:miter;stroke-opacity:1" /><path
     sodipodi:nodetypes="ccc"
     inkscape:original-d="m -33.328031,71.226415 0.615581,1.231161 c -1.322675,0.924563 -1.067664,1.548615 -0.866356,2.182896"
     inkscape:path-effect="#path-effect921"
     id="path919"
     d="m -33.328031,71.226415 c 0.04994,-0.02497 0.345293,0.492142 0.703295,1.253422 0,0 0,0 0,0 -0.151472,0.119382 -0.325504,0.259848 -0.47919,0.408969 -0.269395,0.261392 -0.44002,0.514035 -0.506509,0.79231 -0.145674,0.512132 0.07617,0.945218 0.03163,0.959356 -0.04454,0.01414 -0.354858,-0.344712 -0.245002,-1.005828 0.06131,-0.308427 0.240243,-0.584829 0.520952,-0.834964 0.162401,-0.144713 0.341089,-0.265055 0.502692,-0.364365 0,0 0,0 0,0 -0.356297,-0.667316 -0.577803,-1.183932 -0.527867,-1.2089 z"
     style="fill:#000000;stroke:none;stroke-width:0.0166243px;stroke-linecap:butt;stroke-linejoin:miter;stroke-opacity:1" /><path
     sodipodi:nodetypes="cc"
     inkscape:original-d="m -38.000845,70.47093 0.358022,0.716045"
     inkscape:path-effect="#path-effect929"
     id="path927"
     d="m -38.000845,70.47093 c 0.04808,-0.02404 0.167305,0.11684 0.266119,0.314468 0.09881,0.197628 0.139987,0.377535 0.0919,0.401577 -0.04808,0.02404 -0.167306,-0.116841 -0.26612,-0.314469 -0.09881,-0.197628 -0.139986,-0.377534 -0.0919,-0.401576 z"
     style="fill:#000000;stroke:none;stroke-width:0.0166243px;stroke-linecap:butt;stroke-linejoin:miter;stroke-opacity:1" /><path
     sodipodi:nodetypes="ccc"
     inkscape:original-d="m -24.210542,66.502892 c -0.408606,0.629609 -0.228629,0.86683 -0.276275,1.255799 0.467603,0.699271 0.804074,1.202497 3.089266,1.481844"
     inkscape:path-effect="#path-effect960"
     id="path958"
     d="m -24.210542,66.502892 c 0.04061,0.02635 -0.08837,0.461177 -0.174648,1.2316 0,0 0,0 0,0 0.187527,0.270496 0.431942,0.508831 0.753817,0.712744 1.049136,0.664647 2.242239,0.724445 2.233822,0.793299 -0.0084,0.06885 -1.242616,0.108493 -2.379832,-0.64825 -0.348405,-0.231841 -0.615735,-0.507376 -0.811061,-0.809395 0,0 0,0 0,0 0.103946,-0.782538 0.337293,-1.306352 0.377902,-1.279998 z"
     style="fill:#000000;stroke:none;stroke-width:0.0166243px;stroke-linecap:butt;stroke-linejoin:miter;stroke-opacity:1" /><path
     inkscape:original-d="m -24.434113,66.043946 3.088891,2.131041"
     inkscape:path-effect="#path-effect3076"
     id="path3074"
     d="m -23.869703,66.611917 c -0.661394,-0.52657 -0.759129,-0.731033 -0.218134,-0.456375 0.540968,0.274641 1.516804,0.924903 2.178205,1.451474 0.661394,0.52657 0.759129,0.731033 0.218135,0.456374 -0.540969,-0.27464 -1.516805,-0.924902 -2.178206,-1.451473 z"
     style="fill:#000000;stroke:none;stroke-width:0.0191047px;stroke-linecap:butt;stroke-linejoin:miter;stroke-opacity:1" /><g
     style="font-size:40px;line-height:1.25;font-family:'Petaluma Script';-inkscape-font-specification:'Petaluma Script'"
     id="g885"><path
       d="m -14.238168,67.733454 c 0,-0.01333 0,-0.04 -0.01333,-0.06667 -0.02667,-0.02667 -0.05333,-0.04 -0.09333,-0.04 -0.02667,0 -0.04,0.01333 -0.06667,0.01333 -0.16,0.02667 -0.319999,0.106667 -0.466666,0.186666 -0.186666,0.106667 -0.359999,0.226666 -0.506665,0.373333 l -0.12,0.119999 c -0.05333,0.06667 -0.09333,0.133333 -0.12,0.213333 0.08,0.999998 0.106667,1.999995 0.106667,3.013326 v 0.573332 c -0.853331,0.173333 -1.719996,0.266666 -2.58666,0.373332 -0.2,0.02667 -0.413333,0.05333 -0.613332,0.06667 0,-0.24 0,-0.479999 -0.01333,-0.706665 v -0.786665 c 0,-1.053331 -0.01333,-2.119995 -0.09333,-3.173325 0,-0.01333 0,-0.04 -0.01333,-0.06667 -0.02667,-0.02667 -0.05333,-0.04 -0.09333,-0.04 -0.02667,0 -0.04,0.01333 -0.06667,0.01333 -0.16,0.02667 -0.32,0.106666 -0.466666,0.186666 -0.186666,0.106666 -0.359999,0.226666 -0.506665,0.373332 l -0.12,0.12 c -0.05333,0.06667 -0.09333,0.133333 -0.12,0.213333 0.133333,1.746662 0.06667,3.506658 0.106667,5.266653 0.01333,0.559999 0.04,1.119997 0.04,1.693329 v 0.28 c 0,0.653331 -0.02667,1.319996 -0.04,1.986661 0,0.08 0.05333,0.106667 0.119999,0.106667 0.173333,0 0.453333,-0.16 0.519999,-0.2 0.173333,-0.106666 0.359999,-0.226666 0.506666,-0.373332 l 0.119999,-0.12 c 0.05333,-0.06667 0.09333,-0.133333 0.12,-0.213333 0.02667,-0.759998 0.05333,-1.519996 0.05333,-2.279994 v -0.359999 c -0.01333,-0.173333 -0.01333,-0.333333 -0.01333,-0.506666 l 1.066664,-0.119999 c 0.493332,-0.05333 0.986664,-0.146667 1.479996,-0.226666 l 0.586665,-0.12 v 4.173323 c -0.05333,0.04 -0.08,0.06667 -0.08,0.08 0,0.02667 0.04,0.02667 0.08,0.02667 0.173333,0 0.439999,-0.159999 0.506666,-0.199999 0.173333,-0.106667 0.359999,-0.226666 0.506665,-0.373333 l 0.12,-0.119999 c 0.05333,-0.06667 0.09333,-0.133333 0.119999,-0.213333 0.04,-1.626663 0.12,-3.266659 0.146667,-4.893321 0.01333,-0.453332 0.01333,-0.906665 0.01333,-1.359997 0,-0.959997 -0.02667,-1.933328 -0.106666,-2.893326 z"
       style="fill:#0055d4;fill-opacity:1"
       id="path853" /><path
       d="m -6.5827709,67.840121 c -0.1333329,-0.01333 -0.2666659,-0.01333 -0.3866656,-0.01333 h -1.7199957 c -0.8933311,0 -1.7866618,0.01333 -2.6666598,0.05333 -0.106667,0 -0.213333,0.01333 -0.319999,0.01333 l -0.09333,0.04 c -0.12,0.04 -0.24,0.09333 -0.346666,0.159999 -0.186666,0.106667 -0.359999,0.226666 -0.506666,0.373333 l -0.119999,0.119999 c -0.05333,0.06667 -0.09333,0.133333 -0.12,0.213333 0.01333,0.173333 0.01333,0.346666 0.01333,0.519999 v 0.973331 c 0,0.906664 -0.01333,1.813329 -0.01333,2.719993 -0.01333,0.933331 -0.05333,1.853329 -0.05333,2.78666 0,0.573331 -0.01333,1.159997 -0.05333,1.733328 v 0.06667 c 0,0.08 0.05333,0.106666 0.119999,0.106666 0.06667,0 0.146667,-0.02667 0.186667,-0.04 0.06667,-0.01333 0.133333,-0.01333 0.199999,-0.01333 0.133333,0 0.266666,-0.01333 0.386666,-0.01333 0.386665,0 0.786664,0.01333 1.17333,0.01333 0.866665,0.01333 1.733329,0.02667 2.6133268,0.05333 l 0.6799983,0.02667 c 0.04,0 0.08,0 0.1199997,0.01333 0.1066664,0 0.1733329,-0.119999 0.1999995,-0.186666 0.08,-0.16 0.133333,-0.333332 0.1733329,-0.493332 0.04,-0.173333 0.066667,-0.359999 0.066667,-0.533332 0,-0.05333 -0.013333,-0.226666 -0.093333,-0.253333 H -7.302769 c -0.1199997,-0.01333 -0.2266661,-0.01333 -0.3466658,-0.01333 -0.3733324,-0.01333 -0.7466648,-0.02667 -1.1199972,-0.02667 -0.8799978,-0.02667 -1.759996,-0.04 -2.639993,-0.05333 h -0.146667 c 0.01333,-0.319999 0.02667,-0.639998 0.02667,-0.973331 0,-0.719998 0.04,-1.453329 0.04,-2.173328 h 1.319997 l 0.3866652,-0.04 h 0.5599986 c 0.1199997,0.01333 0.2533327,0 0.3733324,0.02667 h 0.066667 c 0.1199997,0 0.2266661,-0.05333 0.3199992,-0.09333 0.1999995,-0.09333 0.3866657,-0.199999 0.5466653,-0.333332 0.133333,-0.106667 0.266666,-0.226666 0.3466658,-0.373333 0.026667,-0.02667 0.04,-0.08 0.04,-0.119999 0,-0.04 -0.013333,-0.06667 -0.066667,-0.06667 -0.1066664,-0.02667 -0.2266661,-0.02667 -0.3333325,-0.02667 h -0.573335 c -0.5066654,0 -1.0133308,0.01333 -1.519996,0.02667 -0.466666,0.01333 -0.919998,0.01333 -1.386663,0.05333 -0.01333,0 -0.04,0 -0.06667,0.01333 0.01333,-0.799998 0.01333,-1.599996 0.01333,-2.399994 0,-0.133333 0,-0.253333 0.01333,-0.373333 0.09333,-0.01333 0.199999,-0.01333 0.293332,-0.01333 0.466666,-0.01333 0.933331,-0.02667 1.3999968,-0.02667 0.4933321,-0.01333 0.9866642,-0.01333 1.4799963,-0.01333 0.3599991,0 0.7333315,0 1.0933306,0.01333 0.08,0 0.1733329,0 0.2533327,0.01333 0.093333,0 0.1599996,-0.106667 0.1999995,-0.173333 0,-0.01333 0.1333329,-0.333333 0.1733328,-0.506666 0.04,-0.173333 0.066667,-0.359999 0.066667,-0.533332 0,-0.05333 -0.013333,-0.239999 -0.093333,-0.253332 z"
       style="fill:#0055d4;fill-opacity:1"
       id="path856" /><path
       d="m -0.08028703,76.480099 c 0,-0.04 -0.0133333,-0.24 -0.0933331,-0.253333 -0.38666569,-0.02667 -0.77333138,-0.02667 -1.15999707,-0.02667 -0.5199987,0 -1.0533307,0.01333 -1.5733294,0.01333 l -1.1866636,0.04 c 0.026667,-0.293333 0.026667,-0.599999 0.04,-0.893331 0.026667,-0.866665 0.053333,-1.719996 0.066666,-2.586661 0.013333,-0.919997 0.026667,-1.826662 0.026667,-2.746659 V 68.14678 c 0,-0.08 0,-0.16 -0.013333,-0.253333 0,-0.01333 -0.013333,-0.04 -0.013333,-0.06667 -0.026667,-0.02667 -0.053333,-0.04 -0.093333,-0.04 -0.026667,0 -0.04,0 -0.066666,0.01333 -0.1599996,0.02667 -0.3199992,0.106666 -0.4666655,0.186666 -0.1866662,0.106666 -0.3599991,0.226666 -0.5199987,0.373332 l -0.1066664,0.12 c -0.066666,0.06667 -0.1066664,0.133333 -0.1199997,0.213333 v 0.226666 c 0,0.08 0,0.146666 0.013333,0.213333 v 0.893331 c 0,0.853331 -0.013333,1.706662 -0.026667,2.573327 v 2.759993 c -0.053333,0.586665 -0.066667,1.17333 -0.1066664,1.759995 -0.026667,0.106667 -0.04,0.24 -0.04,0.346666 v 0.05333 c 0,0.04 0,0.05333 0.013333,0.06667 0.013333,0.05333 0.013333,0.173333 0.08,0.173333 0.3066659,-0.04 0.6133318,-0.04 0.9066644,-0.05333 h 1.5199961 c 0.4799988,-0.05333 0.9599976,-0.05333 1.4399964,-0.05333 0.3466658,0 0.69333159,0 1.03999738,0.04 0.0933331,0 0.1599996,-0.106666 0.1999995,-0.173333 0,-0.01333 0.13333299,-0.333332 0.17333289,-0.506665 0.0399999,-0.173333 0.0666665,-0.359999 0.0666665,-0.533332 z"
       style="fill:#0055d4;fill-opacity:1"
       id="path858" /><path
       d="m 6.6115695,68.813451 c 0.04,-0.173332 0.066667,-0.359999 0.066667,-0.533331 0,-0.05333 -0.013333,-0.24 -0.093333,-0.253333 C 6.3049036,68.00012 6.0249043,68.00012 5.744905,68.00012 5.3049061,67.986787 4.8515739,67.986787 4.411575,67.986787 H 1.9715812 l -0.266666,0.04 c -0.1066664,0.01333 -0.1599996,0.106666 -0.1999995,0.186666 -0.08,0.16 -0.133333,0.333333 -0.1733329,0.493332 -0.04,0.173333 -0.066666,0.359999 -0.066666,0.533332 0,0.04 0.013333,0.253333 0.093333,0.253333 H 2.984912 v 0.479999 c 0,0.319999 -0.013333,0.653331 -0.026667,0.97333 -0.04,0.906665 -0.08,1.813329 -0.133333,2.70666 -0.053333,0.839998 -0.1066664,1.679996 -0.1999995,2.519994 l -0.6266651,0.04 c -0.2933326,0.02667 -0.5866652,0.04 -0.8666645,0.08 -0.053333,0.01333 -0.093333,0.02667 -0.13333296,0.02667 -0.0266666,0.02667 -0.0399999,0.05333 -0.0666665,0.06667 -0.0533332,0.08 -0.0933331,0.159999 -0.13333299,0.239999 -0.0666665,0.186666 -0.1199997,0.373332 -0.1466663,0.559999 -0.0133333,0.09333 -0.0266666,0.186666 -0.0266666,0.279999 0,0.05333 0,0.12 0.0133333,0.173333 l 0.0399999,0.09333 c 0.0133333,0.02667 0.0399999,0.04 0.0666665,0.04 0.0133333,0 0.0266666,0 0.0399999,-0.01333 0.22666605,-0.05333 0.46666545,-0.05333 0.69333155,-0.06667 0.4533322,-0.04 0.8933311,-0.06667 1.33333,-0.09333 0.4666655,-0.02667 0.9199977,-0.04 1.3733299,-0.05333 h 0.4399988 c 0.1466663,0 0.2799993,0 0.4266656,0.02667 0.026667,0 0.04,0 0.053333,0.01333 0.093333,0 0.1599996,-0.133333 0.1999995,-0.186667 0.08,-0.159999 0.133333,-0.333332 0.1733329,-0.493332 0.04,-0.173333 0.066666,-0.359999 0.066666,-0.533332 -0.013333,-0.06667 -0.013333,-0.226666 -0.093333,-0.253332 -0.093333,-0.02667 -0.1866662,-0.01333 -0.266666,-0.02667 H 4.7049076 c -0.266666,0 -0.5199986,0.01333 -0.7733313,0.01333 l 0.04,-0.253332 c 0.04,-0.333333 0.066666,-0.666665 0.093333,-0.999998 0.08,-0.906664 0.133333,-1.813329 0.1866662,-2.719993 0.04,-0.839998 0.08,-1.679996 0.1066663,-2.519994 0.013333,-0.05333 0.013333,-0.119999 0.013333,-0.173332 0.4399989,0 0.8933311,0 1.33333,0.01333 0.1733329,0.01333 0.3599991,0.01333 0.533332,0.04 0.093333,0 0.1599996,-0.106667 0.1999995,-0.173333 0,-0.01333 0.133333,-0.333333 0.1733329,-0.506666 z"
       style="fill:#0055d4;fill-opacity:1"
       id="path860" /><path
       d="m 13.225095,68.093453 c -0.226666,-0.04 -0.453332,-0.05333 -0.679998,-0.05333 -0.2,0 -0.399999,0.01333 -0.599999,0.01333 -0.506665,0.02667 -1.013331,0.06667 -1.519996,0.12 l -0.8533312,0.09333 c -0.1599996,0.01333 -0.399999,0.146667 -0.4933321,0.186666 -0.1466663,0 -0.4266656,0.28 -0.533332,0.386666 l -0.1199997,0.12 c -0.066667,0.06667 -0.1066664,0.133333 -0.1199997,0.213333 l -0.133333,1.986661 c -0.066666,0.973331 -0.1466663,1.959995 -0.1999995,2.933326 0,0.05333 -0.013333,0.09333 -0.013333,0.146666 -0.053333,0.786665 -0.093333,1.57333 -0.133333,2.359994 0,0.16 -0.013333,0.32 -0.013333,0.493333 0,0.09333 0,0.199999 0.013333,0.306665 0.026667,0.01333 0.04,0.02667 0.066667,0.02667 h 0.066667 c 0.053333,0 0.1066664,-0.01333 0.1599996,-0.02667 0.1866662,-0.06667 0.3599991,-0.159999 0.533332,-0.266666 0.1599996,-0.119999 0.3199992,-0.239999 0.4399989,-0.386665 l 0.08,-0.12 c 0.026667,-0.02667 0.04,-0.05333 0.04,-0.09333 0,-0.01333 0,-0.04 -0.013333,-0.05333 v -0.133333 c 0,-0.106667 0,-0.213333 0.013333,-0.319999 l 0.093333,-2.493327 2.1599947,-0.186667 c 0.266666,-0.06667 0.546666,-0.119999 0.826665,-0.119999 0.106666,-0.01333 0.159998,-0.106667 0.199999,-0.186667 0.08,-0.146666 0.133333,-0.319999 0.173333,-0.493332 0.04,-0.173332 0.06667,-0.359999 0.06667,-0.533332 -0.01333,-0.04 -0.01333,-0.239999 -0.09333,-0.239999 -0.373333,0 -0.773332,0.06667 -1.146664,0.106666 -0.506665,0.06667 -1.013331,0.12 -1.5199967,0.173333 -0.1466663,0.01333 -0.3066659,0.02667 -0.4533322,0.02667 h -0.08 l 0.1599996,-2.399994 c 0.5999983,-0.06667 1.1866633,-0.12 1.7866623,-0.16 0.279999,-0.01333 0.573331,-0.02667 0.853331,-0.02667 0.213332,0 0.439999,0.01333 0.653331,0.05333 0.106667,0 0.173333,-0.12 0.2,-0.186666 0.08,-0.146667 0.133333,-0.319999 0.173333,-0.493332 0.04,-0.173333 0.06667,-0.359999 0.06667,-0.533332 -0.01333,-0.05333 -0.01333,-0.226666 -0.106666,-0.24 z"
       style="fill:#4d4d4d"
       id="path862" /><path
       d="m 19.37279,76.480099 c 0,-0.04 -0.01333,-0.24 -0.09333,-0.253333 -0.386666,-0.02667 -0.773331,-0.02667 -1.159997,-0.02667 -0.519999,0 -1.053331,0.01333 -1.573329,0.01333 l -1.186664,0.04 c 0.02667,-0.293333 0.02667,-0.599999 0.04,-0.893331 0.02667,-0.866665 0.05333,-1.719996 0.06667,-2.586661 0.01333,-0.919997 0.02667,-1.826662 0.02667,-2.746659 V 68.14678 c 0,-0.08 0,-0.16 -0.01333,-0.253333 0,-0.01333 -0.01333,-0.04 -0.01333,-0.06667 -0.02667,-0.02667 -0.05333,-0.04 -0.09333,-0.04 -0.02667,0 -0.04,0 -0.06667,0.01333 -0.16,0.02667 -0.319999,0.106666 -0.466666,0.186666 -0.186666,0.106666 -0.359999,0.226666 -0.519998,0.373332 l -0.106667,0.12 c -0.06667,0.06667 -0.106666,0.133333 -0.119999,0.213333 v 0.226666 c 0,0.08 0,0.146666 0.01333,0.213333 v 0.893331 c 0,0.853331 -0.01333,1.706662 -0.02667,2.573327 v 2.759993 c -0.05333,0.586665 -0.06667,1.17333 -0.106666,1.759995 -0.02667,0.106667 -0.04,0.24 -0.04,0.346666 v 0.05333 c 0,0.04 0,0.05333 0.01333,0.06667 0.01333,0.05333 0.01333,0.173333 0.08,0.173333 0.306666,-0.04 0.613332,-0.04 0.906665,-0.05333 h 1.519996 c 0.479998,-0.05333 0.959997,-0.05333 1.439996,-0.05333 0.346666,0 0.693332,0 1.039997,0.04 0.09333,0 0.16,-0.106666 0.2,-0.173333 0,-0.01333 0.133333,-0.333332 0.173333,-0.506665 0.04,-0.173333 0.06667,-0.359999 0.06667,-0.533332 z"
       style="fill:#4d4d4d"
       id="path864" /><path
       d="m 26.064645,68.813451 c 0.04,-0.173332 0.06667,-0.359999 0.06667,-0.533331 0,-0.05333 -0.01333,-0.24 -0.09333,-0.253333 -0.279999,-0.02667 -0.559998,-0.02667 -0.839998,-0.02667 -0.439998,-0.01333 -0.893331,-0.01333 -1.33333,-0.01333 h -2.439993 l -0.266666,0.04 c -0.106667,0.01333 -0.16,0.106666 -0.2,0.186666 -0.08,0.16 -0.133333,0.333333 -0.173333,0.493332 -0.04,0.173333 -0.06667,0.359999 -0.06667,0.533332 0,0.04 0.01333,0.253333 0.09333,0.253333 h 1.626662 v 0.479999 c 0,0.319999 -0.01333,0.653331 -0.02667,0.97333 -0.04,0.906665 -0.08,1.813329 -0.133333,2.70666 -0.05333,0.839998 -0.106667,1.679996 -0.2,2.519994 l -0.626665,0.04 c -0.293332,0.02667 -0.586665,0.04 -0.866664,0.08 -0.05333,0.01333 -0.09333,0.02667 -0.133333,0.02667 -0.02667,0.02667 -0.04,0.05333 -0.06667,0.06667 -0.05333,0.08 -0.09333,0.159999 -0.133333,0.239999 -0.06667,0.186666 -0.119999,0.373332 -0.146666,0.559999 -0.01333,0.09333 -0.02667,0.186666 -0.02667,0.279999 0,0.05333 0,0.12 0.01333,0.173333 l 0.04,0.09333 c 0.01333,0.02667 0.04,0.04 0.06667,0.04 0.01333,0 0.02667,0 0.04,-0.01333 0.226666,-0.05333 0.466665,-0.05333 0.693332,-0.06667 0.453332,-0.04 0.893331,-0.06667 1.33333,-0.09333 0.466665,-0.02667 0.919997,-0.04 1.373329,-0.05333 h 0.439999 c 0.146667,0 0.28,0 0.426666,0.02667 0.02667,0 0.04,0 0.05333,0.01333 0.09333,0 0.16,-0.133333 0.2,-0.186667 0.08,-0.159999 0.133333,-0.333332 0.173332,-0.493332 0.04,-0.173333 0.06667,-0.359999 0.06667,-0.533332 -0.01333,-0.06667 -0.01333,-0.226666 -0.09333,-0.253332 -0.09333,-0.02667 -0.186666,-0.01333 -0.266666,-0.02667 h -0.479999 c -0.266666,0 -0.519999,0.01333 -0.773331,0.01333 l 0.04,-0.253332 c 0.04,-0.333333 0.06667,-0.666665 0.09333,-0.999998 0.08,-0.906664 0.133333,-1.813329 0.186666,-2.719993 0.04,-0.839998 0.08,-1.679996 0.106666,-2.519994 0.01333,-0.05333 0.01333,-0.119999 0.01333,-0.173332 0.439998,0 0.893331,0 1.33333,0.01333 0.173332,0.01333 0.359999,0.01333 0.533332,0.04 0.09333,0 0.159999,-0.106667 0.199999,-0.173333 0,-0.01333 0.133333,-0.333333 0.173333,-0.506666 z"
       style="fill:#4d4d4d"
       id="path866" /><path
       d="m 33.10817,72.213443 c 0,-0.04 -0.01333,-0.253333 -0.09333,-0.253333 -0.613332,0.01333 -1.213331,0.01333 -1.813329,0.01333 -0.533332,0.01333 -1.079997,0.01333 -1.613329,0.01333 -0.106667,0 -0.16,0.12 -0.2,0.186666 -0.08,0.16 -0.133333,0.333332 -0.173333,0.493332 -0.04,0.173333 -0.06667,0.359999 -0.06667,0.533332 0,0.04 0.01333,0.253333 0.09333,0.253333 0.613332,-0.01333 1.21333,-0.01333 1.813329,-0.01333 0.199999,-0.01333 0.399999,-0.01333 0.613331,-0.01333 0,0.02667 -0.01333,0.04 -0.01333,0.06667 -0.02667,0.226666 -0.04,0.453332 -0.08,0.666665 -0.08,0.533332 -0.213332,1.066664 -0.413332,1.559996 -0.12,0.266666 -0.253333,0.533332 -0.413332,0.773331 -0.04,0.02667 -0.06667,0.06667 -0.09333,0.106666 -0.02667,0.02667 -0.05333,0.05333 -0.06667,0.08 -0.02667,0.02667 -0.04,0.04 -0.05333,0.04 -0.05333,0.02667 -0.106666,0.04 -0.16,0.05333 -0.173332,0.04 -0.359999,0.06667 -0.533332,0.06667 -0.413332,0 -0.826664,-0.09333 -1.186663,-0.306666 -0.799998,-0.479999 -1.186664,-1.386663 -1.346663,-2.279994 -0.01333,-0.05333 -0.02667,-0.106667 -0.02667,-0.173333 -0.05333,-0.333333 -0.06667,-0.666665 -0.06667,-0.999998 0,-0.773331 0.12,-1.559996 0.32,-2.30666 0.06667,-0.253333 0.146666,-0.506666 0.239999,-0.746665 0.106666,-0.226666 0.226666,-0.453332 0.373332,-0.653332 0.02667,-0.05333 0.06667,-0.09333 0.106667,-0.146666 l 0.05333,-0.04 0.05333,-0.06667 c 0.01333,0 0.04,-0.01333 0.05333,-0.02667 0.01333,0 0.04,0 0.05333,-0.01333 l 0.146666,-0.04 c 0.186666,-0.05333 0.386666,-0.06667 0.586665,-0.08 0.559999,0.01333 1.106664,0.159999 1.599996,0.439999 0.279999,0.173333 0.533332,0.373332 0.733331,0.639998 0.01333,0.02667 0.05333,0.04 0.09333,0.04 0.06667,0 0.146666,-0.02667 0.199999,-0.04 0.173333,-0.06667 0.359999,-0.16 0.519999,-0.279999 0.159999,-0.106667 0.319999,-0.226666 0.439999,-0.373333 0.02667,-0.04 0.119999,-0.146666 0.119999,-0.226666 0,-0.01333 0,-0.04 -0.01333,-0.05333 -0.239999,-0.319999 -0.559999,-0.546665 -0.919998,-0.746665 -0.359999,-0.186666 -0.773331,-0.319999 -1.186663,-0.373332 -0.12,-0.01333 -0.253333,-0.02667 -0.373333,-0.02667 -0.373332,0 -0.746664,0.06667 -1.106664,0.173333 -0.319999,0.106667 -0.639998,0.253333 -0.919997,0.426666 -0.373333,0.226666 -0.733332,0.479999 -1.039998,0.799998 -0.253332,0.253332 -0.479998,0.519998 -0.653331,0.839998 -0.173333,0.279999 -0.293333,0.573332 -0.399999,0.893331 -0.186666,0.533332 -0.319999,1.106664 -0.386666,1.666662 -0.05333,0.386666 -0.08,0.759998 -0.08,1.146664 0,0.173333 0,0.359999 0.01333,0.533332 0.04,0.519999 0.133333,1.053331 0.306665,1.546663 0.16,0.426665 0.386666,0.826664 0.706665,1.146663 0.32,0.32 0.746665,0.546666 1.186664,0.639999 0.199999,0.04 0.413332,0.06667 0.613332,0.06667 0.346666,0 0.693331,-0.05333 1.013331,-0.159999 0.373332,-0.12 0.719998,-0.306666 1.05333,-0.519999 0.28,-0.173333 0.546665,-0.386666 0.773332,-0.613332 0.359999,-0.346666 0.653331,-0.759998 0.879997,-1.199997 0.186667,-0.386665 0.333333,-0.799998 0.439999,-1.21333 0.106667,-0.453332 0.186666,-0.919998 0.226666,-1.386663 0.04,-0.2 0.06667,-0.359999 0.06667,-0.533332 z"
       style="fill:#4d4d4d"
       id="path868" /><path
       d="m 40.032526,67.733454 c 0,-0.01333 0,-0.04 -0.01333,-0.06667 -0.02667,-0.02667 -0.05333,-0.04 -0.09333,-0.04 -0.02667,0 -0.04,0.01333 -0.06667,0.01333 -0.159999,0.02667 -0.319999,0.106667 -0.466665,0.186666 -0.186666,0.106667 -0.359999,0.226666 -0.506665,0.373333 l -0.12,0.119999 c -0.05333,0.06667 -0.09333,0.133333 -0.12,0.213333 0.08,0.999998 0.106667,1.999995 0.106667,3.013326 v 0.573332 c -0.853332,0.173333 -1.719996,0.266666 -2.586661,0.373332 -0.199999,0.02667 -0.413332,0.05333 -0.613331,0.06667 0,-0.24 0,-0.479999 -0.01333,-0.706665 v -0.786665 c 0,-1.053331 -0.01333,-2.119995 -0.09333,-3.173325 0,-0.01333 0,-0.04 -0.01333,-0.06667 -0.02667,-0.02667 -0.05333,-0.04 -0.09333,-0.04 -0.02667,0 -0.04,0.01333 -0.06667,0.01333 -0.159999,0.02667 -0.319999,0.106666 -0.466665,0.186666 -0.186666,0.106666 -0.359999,0.226666 -0.506666,0.373332 l -0.119999,0.12 c -0.05333,0.06667 -0.09333,0.133333 -0.12,0.213333 0.133333,1.746662 0.06667,3.506658 0.106666,5.266653 0.01333,0.559999 0.04,1.119997 0.04,1.693329 v 0.28 c 0,0.653331 -0.02667,1.319996 -0.04,1.986661 0,0.08 0.05333,0.106667 0.12,0.106667 0.173333,0 0.453332,-0.16 0.519999,-0.2 0.173333,-0.106666 0.359999,-0.226666 0.506665,-0.373332 l 0.12,-0.12 c 0.05333,-0.06667 0.09333,-0.133333 0.12,-0.213333 0.02667,-0.759998 0.05333,-1.519996 0.05333,-2.279994 v -0.359999 c -0.01333,-0.173333 -0.01333,-0.333333 -0.01333,-0.506666 l 1.066664,-0.119999 c 0.493332,-0.05333 0.986664,-0.146667 1.479996,-0.226666 l 0.586665,-0.12 v 4.173323 c -0.05333,0.04 -0.08,0.06667 -0.08,0.08 0,0.02667 0.04,0.02667 0.08,0.02667 0.173333,0 0.439999,-0.159999 0.506665,-0.199999 0.173333,-0.106667 0.359999,-0.226666 0.506666,-0.373333 l 0.119999,-0.119999 c 0.05333,-0.06667 0.09333,-0.133333 0.12,-0.213333 0.04,-1.626663 0.12,-3.266659 0.146666,-4.893321 0.01333,-0.453332 0.01333,-0.906665 0.01333,-1.359997 0,-0.959997 -0.02667,-1.933328 -0.106667,-2.893326 z"
       style="fill:#4d4d4d"
       id="path870" /><path
       d="m 47.941257,69.693449 c 0.239999,0 0.466665,0 0.706664,-0.01333 0.12,0 0.24,0 0.36,-0.01333 0.106666,-0.02667 0.146666,-0.106667 0.199999,-0.186667 0.08,-0.159999 0.133333,-0.333332 0.173333,-0.493332 0.04,-0.173333 0.06667,-0.359999 0.06667,-0.533332 0,-0.02667 -0.01333,-0.266666 -0.09333,-0.253332 -0.173333,0.02667 -0.346665,0.02667 -0.519998,0.02667 -0.333333,0.01333 -0.666665,0.01333 -0.999998,0.01333 -0.906664,0 -1.813329,-0.01333 -2.719993,-0.02667 H 42.54127 c -0.359999,-0.04 -0.706665,-0.05333 -1.05333,-0.05333 -0.106667,0.01333 -0.16,0.106666 -0.2,0.186666 -0.08,0.16 -0.133333,0.333333 -0.173333,0.493332 -0.04,0.173333 -0.06667,0.359999 -0.06667,0.533332 0,0.04 0.01333,0.253333 0.09333,0.253333 h 0.439999 c 0.359999,0 0.706665,0.01333 1.05333,0.01333 0.613332,0 1.226664,0.01333 1.839996,0.02667 -0.01333,0.08 -0.02667,0.159999 -0.02667,0.239999 -0.04,0.319999 -0.06667,0.626665 -0.09333,0.933331 -0.06667,0.879998 -0.12,1.773329 -0.16,2.653327 -0.04,0.893331 -0.08,1.799995 -0.106666,2.693326 -0.01333,0.333333 -0.01333,0.666665 -0.01333,0.999998 0,0.199999 0,0.386665 0.01333,0.573332 l 0.02667,0.119999 0.05333,0.02667 h 0.06667 c 0.05333,0 0.12,-0.01333 0.173333,-0.02667 0.173333,-0.06667 0.359999,-0.159999 0.519999,-0.279999 0.159999,-0.106666 0.319999,-0.226666 0.439999,-0.373332 l 0.08,-0.12 c 0.02667,-0.02667 0.04,-0.05333 0.04,-0.09333 0,-0.02667 0,-0.04 -0.01333,-0.06667 -0.01333,-0.159999 -0.01333,-0.319999 -0.01333,-0.493332 0,-0.319999 0.01333,-0.653331 0.01333,-0.973331 0,-0.893331 0.06667,-1.786662 0.106667,-2.679993 0.04,-0.893331 0.09333,-1.773329 0.159999,-2.66666 l 0.04,-0.453332 c 0.719998,0.01333 1.439996,0.01333 2.159995,0.01333 z"
       style="fill:#4d4d4d"
       id="path872" /></g></g></svg>
