<?xml version="1.0" encoding="UTF-8" standalone="no"?>
<svg
   xmlns:dc="http://purl.org/dc/elements/1.1/"
   xmlns:cc="http://creativecommons.org/ns#"
   xmlns:rdf="http://www.w3.org/1999/02/22-rdf-syntax-ns#"
   xmlns:svg="http://www.w3.org/2000/svg"
   xmlns="http://www.w3.org/2000/svg"
   xmlns:sodipodi="http://sodipodi.sourceforge.net/DTD/sodipodi-0.dtd"
   xmlns:inkscape="http://www.inkscape.org/namespaces/inkscape"
   inkscape:version="1.0 (4035a4fb49, 2020-05-01)"
   sodipodi:docname="cf_logo_white.svg"
   xml:space="preserve"
   style="enable-background:new -70 61.5 141.7 18.2;"
   viewBox="-70 61.5 141.7 18.2"
   y="0px"
   x="0px"
   id="Ebene_1"
   version="1.1"><metadata
   id="metadata41"><rdf:RDF><cc:Work
       rdf:about=""><dc:format>image/svg+xml</dc:format><dc:type
         rdf:resource="http://purl.org/dc/dcmitype/StillImage" /></cc:Work></rdf:RDF></metadata><defs
   id="defs39">
	
	
<inkscape:path-effect
   fuse_tolerance="0"
   hide_knot="false"
   vertical_pattern="false"
   prop_units="false"
   tang_offset="0"
   normal_offset="0"
   spacing="0"
   scale_y_rel="false"
   prop_scale="0.65"
   copytype="single_stretched"
   pattern="M 0,5 C 0,2.24 2.24,0 5,0 7.76,0 10,2.24 10,5 10,7.76 7.76,10 5,10 2.24,10 0,7.76 0,5 Z"
   lpeversion="1"
   is_visible="true"
   id="path-effect857"
   effect="skeletal" /><inkscape:path-effect
   fuse_tolerance="0"
   hide_knot="false"
   vertical_pattern="false"
   prop_units="false"
   tang_offset="-1.9"
   normal_offset="0"
   spacing="0"
   scale_y_rel="false"
   prop_scale="1"
   copytype="single_stretched"
   pattern="M 0,5 C 0,2.24 2.24,0 5,0 7.76,0 10,2.24 10,5 10,7.76 7.76,10 5,10 2.24,10 0,7.76 0,5 Z"
   lpeversion="1"
   is_visible="true"
   id="path-effect861"
   effect="skeletal" /><inkscape:path-effect
   fuse_tolerance="0"
   hide_knot="false"
   vertical_pattern="false"
   prop_units="false"
   tang_offset="0"
   normal_offset="0"
   spacing="0"
   scale_y_rel="false"
   prop_scale="1"
   copytype="single_stretched"
   pattern="M 0,5 C 0,2.24 2.24,0 5,0 7.76,0 10,2.24 10,5 10,7.76 7.76,10 5,10 2.24,10 0,7.76 0,5 Z"
   lpeversion="1"
   is_visible="true"
   id="path-effect865"
   effect="skeletal" /><inkscape:path-effect
   fuse_tolerance="0"
   hide_knot="false"
   vertical_pattern="false"
   prop_units="false"
   tang_offset="0"
   normal_offset="0"
   spacing="0"
   scale_y_rel="false"
   prop_scale="0.73"
   copytype="single_stretched"
   pattern="M 0,5 C 0,2.24 2.24,0 5,0 7.76,0 10,2.24 10,5 10,7.76 7.76,10 5,10 2.24,10 0,7.76 0,5 Z"
   lpeversion="1"
   is_visible="true"
   id="path-effect873"
   effect="skeletal" /><inkscape:path-effect
   fuse_tolerance="0"
   hide_knot="false"
   vertical_pattern="false"
   prop_units="false"
   tang_offset="0"
   normal_offset="0"
   spacing="0"
   scale_y_rel="false"
   prop_scale="0.32"
   copytype="single_stretched"
   pattern="M 0,5 C 0,2.24 2.24,0 5,0 7.76,0 10,2.24 10,5 10,7.76 7.76,10 5,10 2.24,10 0,7.76 0,5 Z"
   lpeversion="1"
   is_visible="true"
   id="path-effect913"
   effect="skeletal" /><inkscape:path-effect
   fuse_tolerance="0"
   hide_knot="false"
   vertical_pattern="false"
   prop_units="false"
   tang_offset="0"
   normal_offset="0"
   spacing="0"
   scale_y_rel="false"
   prop_scale="0.4"
   copytype="single_stretched"
   pattern="M 0,5 C 0,2.24 2.24,0 5,0 7.76,0 10,2.24 10,5 10,7.76 7.76,10 5,10 2.24,10 0,7.76 0,5 Z"
   lpeversion="1"
   is_visible="true"
   id="path-effect921"
   effect="skeletal" /><inkscape:path-effect
   fuse_tolerance="0"
   hide_knot="false"
   vertical_pattern="false"
   prop_units="false"
   tang_offset="0"
   normal_offset="0"
   spacing="0"
   scale_y_rel="false"
   prop_scale="0.31"
   copytype="single_stretched"
   pattern="M 0,5 C 0,2.24 2.24,0 5,0 7.76,0 10,2.24 10,5 10,7.76 7.76,10 5,10 2.24,10 0,7.76 0,5 Z"
   lpeversion="1"
   is_visible="true"
   id="path-effect929"
   effect="skeletal" /><inkscape:path-effect
   fuse_tolerance="0"
   hide_knot="false"
   vertical_pattern="false"
   prop_units="false"
   tang_offset="0"
   normal_offset="0"
   spacing="0"
   scale_y_rel="false"
   prop_scale="0.4"
   copytype="single_stretched"
   pattern="m -8.7940781,7.3983849 c 0,-2.76 2.24,-5 5,-5 2.76,0 5,2.24 5,5 0,2.7600001 -2.24,5.0000001 -5,5.0000001 -2.76,0 -5,-2.24 -5,-5.0000001 z"
   lpeversion="1"
   is_visible="true"
   id="path-effect960"
   effect="skeletal" /><inkscape:path-effect
   fuse_tolerance="0"
   hide_knot="false"
   vertical_pattern="false"
   prop_units="false"
   tang_offset="0"
   normal_offset="0"
   spacing="0"
   scale_y_rel="false"
   prop_scale="0.5"
   copytype="single_stretched"
   pattern="m 80.399677,311.23567 c -2.582737,-1.84112 -3.184631,-5.4315 -1.343507,-8.01425 1.841111,-2.58274 5.431502,-3.18463 8.01424,-1.34351 2.582737,1.84113 3.184631,5.4315 1.343507,8.01424 -1.841111,2.58275 -5.431502,3.18464 -8.01424,1.34352 z"
   lpeversion="1"
   is_visible="true"
   id="path-effect3076"
   effect="skeletal" /></defs><sodipodi:namedview
   inkscape:current-layer="Ebene_1"
   inkscape:window-maximized="1"
   inkscape:window-y="-8"
   inkscape:window-x="-8"
   inkscape:cy="-4.0926924"
   inkscape:cx="45.068513"
   inkscape:zoom="8.0129536"
   showgrid="false"
   id="namedview37"
   inkscape:window-height="1017"
   inkscape:window-width="1920"
   inkscape:pageshadow="2"
   inkscape:pageopacity="0"
   guidetolerance="10"
   gridtolerance="10"
   objecttolerance="10"
   borderopacity="1"
   bordercolor="#666666"
   pagecolor="#ffffff" />
<style
   id="style2"
   type="text/css">
	.st0{fill:#FFBB00;}
	.st1{fill:#424242;}
	.st2{fill:#3A3A3A;}
</style>

<g
   transform="matrix(0.06283226,0,0,0.06283226,-42.645679,65.32244)"
   inkscape:export-ydpi="35.392113"
   inkscape:export-xdpi="35.392113"
   style="fill:#000000"
   id="g3089"><path
     style="opacity:1;fill:#000000;fill-opacity:1;stroke:none;stroke-width:0;stroke-linecap:butt;stroke-linejoin:miter;stroke-miterlimit:4;stroke-dasharray:none;stroke-opacity:1"
     d="m 144.30283,148.30013 c 0.25782,0.74679 -13.24009,6.26181 -34.53704,18.14964 -8.45111,4.72298 -24.240969,13.83983 -36.538646,20.1064 -9.980481,5.10372 -21.89867,10.79968 -34.792987,13.70718 -4.976082,1.12562 -10.338905,1.80119 -15.841275,1.41125 -5.063965,-0.94995 -10.241552,-2.89728 -14.9460255,-6.10092 2.2612635,-7.43137 4.9140995,-14.9414 8.0026005,-22.42262 12.20084,-29.55388 28.869645,-53.09946 47.967242,-70.35722 0,0 1.1e-5,0 1.1e-5,0 18.952645,-8.652971 35.213988,-12.608393 49.93863,-12.891383 6.70309,-0.09484 13.24146,0.570067 17.94583,1.132812 11.06093,1.318529 17.20548,1.986872 17.1987,2.501743 -0.007,0.514871 -6.34328,0.814688 -17.4279,0.358641 -4.62867,-0.187936 -11.23314,-0.444354 -17.56166,-0.03152 -13.99504,0.841991 -28.971255,5.018155 -47.014751,13.600427 -3e-6,0 -6e-6,0 -1e-5,0 -18.304716,16.19055 -34.314302,37.88773 -46.363954,65.38252 -3.050519,6.96065 -5.701253,13.96523 -7.991911,20.91706 3.183084,1.39914 6.957464,1.8429 10.74595,1.58234 4.650242,0.40059 9.423423,-0.17707 14.034794,-1.13328 12.004103,-2.49926 23.646901,-7.8413 33.649213,-12.62422 14.117147,-6.77459 26.472212,-13.52538 37.053209,-18.81306 21.8766,-10.94474 36.22216,-15.22258 36.47998,-14.47579 z"
     id="path855"
     inkscape:path-effect="#path-effect857"
     inkscape:original-d="M 144.30283,148.30013 C 99.532977,163.75639 41.030702,212.78079 9.9932703,194.66891 20.996881,159.89967 38.182195,129.25156 65.156124,105.1292 107.12065,85.580018 124.61489,93.220031 148.69987,93.537012"
     sodipodi:nodetypes="cccc" /><path
     style="fill:#000000;stroke:none;stroke-width:0.264583px;stroke-linecap:butt;stroke-linejoin:miter;stroke-opacity:1"
     d="m 153.3887,107.16305 c -1.21243,-2.47944 34.80763,-22.586633 80.40193,-44.882138 45.59431,-22.295505 83.58239,-38.378114 84.79482,-35.898679 1.21244,2.479434 -34.80762,22.586632 -80.40193,44.882137 -45.5943,22.295505 -83.58238,38.37811 -84.79482,35.89868 z"
     id="path859"
     inkscape:path-effect="#path-effect861"
     inkscape:original-d="M 155.09556,106.3284 318.58545,26.382234" /><path
     style="fill:#000000;stroke:none;stroke-width:0.264583px;stroke-linecap:butt;stroke-linejoin:miter;stroke-opacity:1"
     d="m 77.947508,197.06729 c -1.248696,-2.46137 22.013638,-15.22483 51.924852,-28.48985 10.61765,-4.70872 20.60658,-9.04448 29.06305,-12.8533 -16.03446,2.35588 -27.02424,1.55143 -27.02424,-0.22885 0,-1.78028 11.35304,-2.58473 28.93808,-0.22885 -8.0432,4.56174 -17.59959,10.14165 -27.92812,16.05929 -29.09674,16.67071 -53.724926,28.20293 -54.973622,25.74156 z"
     id="path863"
     inkscape:path-effect="#path-effect865"
     inkscape:original-d="m 77.947508,197.06729 81.944822,-41.572 h -27.98116" /><path
     style="fill:#000000;stroke:none;stroke-width:0.264583px;stroke-linecap:butt;stroke-linejoin:miter;stroke-opacity:1"
     d="M -91.538358,155.09556 C -92.426691,153.28717 -21.694973,116.71992 66.344941,73.472243 154.38485,30.224565 226.5585,-3.4073196 227.44684,-1.5989272 228.33517,0.20946525 157.60345,36.776711 69.563539,80.02439 -18.476375,123.27207 -90.650025,156.90395 -91.538358,155.09556 Z"
     id="path871"
     inkscape:path-effect="#path-effect873"
     inkscape:original-d="M -91.538358,155.09556 227.44683,-1.5989233" /><path
     style="fill:#000000;stroke:none;stroke-width:0.264583px;stroke-linecap:butt;stroke-linejoin:miter;stroke-opacity:1"
     d="m 83.72155,180.80292 c 0.271145,-0.84055 3.583558,-0.5252 7.393781,0.7039 3.810222,1.2291 6.682517,2.90882 6.411372,3.74937 -0.271144,0.84055 -3.583558,0.5252 -7.39378,-0.7039 -3.810223,-1.2291 -6.682518,-2.90882 -6.411373,-3.74937 z"
     id="path911"
     inkscape:path-effect="#path-effect913"
     inkscape:original-d="m 83.72155,180.80292 13.805149,4.45327" /><path
     style="fill:#000000;stroke:none;stroke-width:0.264583px;stroke-linecap:butt;stroke-linejoin:miter;stroke-opacity:1"
     d="m 148.29402,93.964079 c 0.79474,-0.39737 5.49543,7.832601 11.19318,19.948691 0,0 1e-5,0 1e-5,0 -2.47288,1.9781 -5.13157,4.2371 -7.56507,6.73402 -1.38634,1.42246 -2.6476,2.86779 -3.78045,4.35889 -2.15947,2.66249 -3.65789,5.31888 -4.34224,8.02592 -0.68921,2.58558 -0.59975,5.2701 -0.35603,7.39809 0,0 0,0 0,0 0.5434,4.68849 1.3425,7.71712 0.85941,7.87044 -0.48309,0.15332 -2.11581,-2.37536 -3.45557,-7.3653 0,0 0,0 0,0 -0.6195,-2.30392 -1.03567,-5.34257 -0.44376,-8.64285 0.64173,-3.38068 2.24865,-6.69684 4.6656,-9.74751 1.16215,-1.37401 2.45801,-2.66036 3.87895,-3.88082 2.50022,-2.14748 5.20755,-3.93417 7.74718,-5.45946 0,0 0,0 0,0 -5.6706,-10.62063 -9.19595,-18.842741 -8.40121,-19.240111 z"
     id="path919"
     inkscape:path-effect="#path-effect921"
     inkscape:original-d="m 148.29402,93.964079 9.7972,19.594401 c -21.05089,14.71479 -16.99229,24.64682 -13.78839,34.74165"
     sodipodi:nodetypes="ccc" /><path
     style="fill:#000000;stroke:none;stroke-width:0.264583px;stroke-linecap:butt;stroke-linejoin:miter;stroke-opacity:1"
     d="m 73.924347,81.94024 c 0.765272,-0.382636 2.662729,1.859552 4.235395,5.004883 1.572666,3.145332 2.227943,6.00861 1.462671,6.391246 -0.765272,0.382636 -2.662729,-1.859552 -4.235395,-5.004883 -1.572666,-3.145332 -2.227943,-6.00861 -1.462671,-6.391246 z"
     id="path927"
     inkscape:path-effect="#path-effect929"
     inkscape:original-d="m 73.924347,81.94024 5.698064,11.396124"
     sodipodi:nodetypes="cc" /><path
     style="fill:#000000;stroke:none;stroke-width:0.264583px;stroke-linecap:butt;stroke-linejoin:miter;stroke-opacity:1"
     d="m 293.40242,18.787349 c 0.48392,0.314055 -2.88175,4.592919 -2.89373,11.523586 -0.07,2.207278 0.48845,4.831317 0.11446,8.07774 1.65002,2.219895 3.50505,4.770692 5.5511,6.843237 1.6976,1.869341 3.68238,3.593654 5.92474,5.087061 0.5408,0.360167 1.08908,0.701887 1.64332,1.025122 0,0 0,10e-7 0,10e-7 8.11766,4.79014 17.8281,6.877047 23.95107,8.194076 6.50529,1.399266 10.54372,2.289559 10.4789,2.819837 -0.0648,0.530278 -4.18177,0.633128 -10.91578,-0.07431 -6.41632,-0.674064 -16.44175,-2.31249 -25.51688,-7.483446 0,-10e-7 -10e-6,-10e-7 -10e-6,-10e-7 -0.62756,-0.36157 -1.24751,-0.745777 -1.85807,-1.152609 -2.53266,-1.687568 -4.7538,-3.664038 -6.6301,-5.821913 -2.34684,-2.879114 -4.27503,-6.04269 -5.86381,-8.666626 0.38684,-2.964893 -0.0564,-6.139087 0.20287,-9.03639 0.96779,-8.259591 5.328,-11.649419 5.81192,-11.335364 z"
     id="path958"
     inkscape:path-effect="#path-effect960"
     inkscape:original-d="m 293.40242,18.787349 c -6.50312,10.020473 -3.63873,13.795946 -4.39703,19.98654 7.44208,11.129168 12.79715,19.138216 49.16688,23.584119"
     sodipodi:nodetypes="ccc" /><path
     style="fill:#000000;stroke:none;stroke-width:0.304059px;stroke-linecap:butt;stroke-linejoin:miter;stroke-opacity:1"
     d="m 298.82717,20.522621 c -10.52641,-8.380602 -12.08193,-11.6347262 -3.47211,-7.263654 8.60977,4.371038 24.14066,14.720261 34.66708,23.100866 10.5264,8.380607 12.08192,11.634726 3.4721,7.26365 -8.60976,-4.371034 -24.14066,-14.720257 -34.66707,-23.100862 z"
     id="path3074"
     inkscape:path-effect="#path-effect3076"
     inkscape:original-d="m 289.8442,11.483057 49.1609,33.916338" /></g><text
   id="text925"
   y="77.733429"
   x="-20.704819"
   style="font-size:40px;line-height:1.25;font-family:'Petaluma Script';-inkscape-font-specification:'Petaluma Script'"
   xml:space="preserve"><tspan
     style="font-size:13.3333px"
     y="77.733429"
     x="-20.704819"
     id="tspan923"
     sodipodi:role="line"><tspan
       id="tspan929"
       style="fill:#0055d4;fill-opacity:1">HELI</tspan><tspan
       id="tspan927"
       style="fill:#4d4d4d">FLIGHT</tspan></tspan></text></svg>
