<?xml version="1.0" encoding="UTF-8" standalone="no"?>
<svg
   xmlns:dc="http://purl.org/dc/elements/1.1/"
   xmlns:cc="http://creativecommons.org/ns#"
   xmlns:rdf="http://www.w3.org/1999/02/22-rdf-syntax-ns#"
   xmlns:svg="http://www.w3.org/2000/svg"
   xmlns="http://www.w3.org/2000/svg"
   xmlns:sodipodi="http://sodipodi.sourceforge.net/DTD/sodipodi-0.dtd"
   xmlns:inkscape="http://www.inkscape.org/namespaces/inkscape"
   version="1.1"
   id="svg4057"
   sodipodi:docname="light-wide-2.svg"
   inkscape:version="1.0 (4035a4fb49, 2020-05-01)"
   x="0px"
   y="0px"
   viewBox="-21 39.4 239.9 62.3"
   style="enable-background:new -21 39.4 239.9 62.3;"
   xml:space="preserve"><metadata
   id="metadata35"><rdf:RDF><cc:Work
       rdf:about=""><dc:format>image/svg+xml</dc:format><dc:type
         rdf:resource="http://purl.org/dc/dcmitype/StillImage" /></cc:Work></rdf:RDF></metadata><defs
   id="defs33"><inkscape:path-effect
     effect="skeletal"
     id="path-effect857"
     is_visible="true"
     lpeversion="1"
     pattern="M 0,5 C 0,2.24 2.24,0 5,0 7.76,0 10,2.24 10,5 10,7.76 7.76,10 5,10 2.24,10 0,7.76 0,5 Z"
     copytype="single_stretched"
     prop_scale="0.65"
     scale_y_rel="false"
     spacing="0"
     normal_offset="0"
     tang_offset="0"
     prop_units="false"
     vertical_pattern="false"
     hide_knot="false"
     fuse_tolerance="0" /><inkscape:path-effect
     effect="skeletal"
     id="path-effect861"
     is_visible="true"
     lpeversion="1"
     pattern="M 0,5 C 0,2.24 2.24,0 5,0 7.76,0 10,2.24 10,5 10,7.76 7.76,10 5,10 2.24,10 0,7.76 0,5 Z"
     copytype="single_stretched"
     prop_scale="1"
     scale_y_rel="false"
     spacing="0"
     normal_offset="0"
     tang_offset="-1.9"
     prop_units="false"
     vertical_pattern="false"
     hide_knot="false"
     fuse_tolerance="0" /><inkscape:path-effect
     effect="skeletal"
     id="path-effect865"
     is_visible="true"
     lpeversion="1"
     pattern="M 0,5 C 0,2.24 2.24,0 5,0 7.76,0 10,2.24 10,5 10,7.76 7.76,10 5,10 2.24,10 0,7.76 0,5 Z"
     copytype="single_stretched"
     prop_scale="1"
     scale_y_rel="false"
     spacing="0"
     normal_offset="0"
     tang_offset="0"
     prop_units="false"
     vertical_pattern="false"
     hide_knot="false"
     fuse_tolerance="0" /><inkscape:path-effect
     effect="skeletal"
     id="path-effect873"
     is_visible="true"
     lpeversion="1"
     pattern="M 0,5 C 0,2.24 2.24,0 5,0 7.76,0 10,2.24 10,5 10,7.76 7.76,10 5,10 2.24,10 0,7.76 0,5 Z"
     copytype="single_stretched"
     prop_scale="0.73"
     scale_y_rel="false"
     spacing="0"
     normal_offset="0"
     tang_offset="0"
     prop_units="false"
     vertical_pattern="false"
     hide_knot="false"
     fuse_tolerance="0" /><inkscape:path-effect
     effect="skeletal"
     id="path-effect913"
     is_visible="true"
     lpeversion="1"
     pattern="M 0,5 C 0,2.24 2.24,0 5,0 7.76,0 10,2.24 10,5 10,7.76 7.76,10 5,10 2.24,10 0,7.76 0,5 Z"
     copytype="single_stretched"
     prop_scale="0.32"
     scale_y_rel="false"
     spacing="0"
     normal_offset="0"
     tang_offset="0"
     prop_units="false"
     vertical_pattern="false"
     hide_knot="false"
     fuse_tolerance="0" /><inkscape:path-effect
     effect="skeletal"
     id="path-effect921"
     is_visible="true"
     lpeversion="1"
     pattern="M 0,5 C 0,2.24 2.24,0 5,0 7.76,0 10,2.24 10,5 10,7.76 7.76,10 5,10 2.24,10 0,7.76 0,5 Z"
     copytype="single_stretched"
     prop_scale="0.4"
     scale_y_rel="false"
     spacing="0"
     normal_offset="0"
     tang_offset="0"
     prop_units="false"
     vertical_pattern="false"
     hide_knot="false"
     fuse_tolerance="0" /><inkscape:path-effect
     effect="skeletal"
     id="path-effect929"
     is_visible="true"
     lpeversion="1"
     pattern="M 0,5 C 0,2.24 2.24,0 5,0 7.76,0 10,2.24 10,5 10,7.76 7.76,10 5,10 2.24,10 0,7.76 0,5 Z"
     copytype="single_stretched"
     prop_scale="0.31"
     scale_y_rel="false"
     spacing="0"
     normal_offset="0"
     tang_offset="0"
     prop_units="false"
     vertical_pattern="false"
     hide_knot="false"
     fuse_tolerance="0" /><inkscape:path-effect
     effect="skeletal"
     id="path-effect960"
     is_visible="true"
     lpeversion="1"
     pattern="m -8.7940781,7.3983849 c 0,-2.76 2.24,-5 5,-5 2.76,0 5,2.24 5,5 0,2.7600001 -2.24,5.0000001 -5,5.0000001 -2.76,0 -5,-2.24 -5,-5.0000001 z"
     copytype="single_stretched"
     prop_scale="0.4"
     scale_y_rel="false"
     spacing="0"
     normal_offset="0"
     tang_offset="0"
     prop_units="false"
     vertical_pattern="false"
     hide_knot="false"
     fuse_tolerance="0" /><inkscape:path-effect
     effect="skeletal"
     id="path-effect3076"
     is_visible="true"
     lpeversion="1"
     pattern="m 80.399677,311.23567 c -2.582737,-1.84112 -3.184631,-5.4315 -1.343507,-8.01425 1.841111,-2.58274 5.431502,-3.18463 8.01424,-1.34351 2.582737,1.84113 3.184631,5.4315 1.343507,8.01424 -1.841111,2.58275 -5.431502,3.18464 -8.01424,1.34352 z"
     copytype="single_stretched"
     prop_scale="0.5"
     scale_y_rel="false"
     spacing="0"
     normal_offset="0"
     tang_offset="0"
     prop_units="false"
     vertical_pattern="false"
     hide_knot="false"
     fuse_tolerance="0" /></defs>
<style
   type="text/css"
   id="style2">
	.st0{fill:#FFBB00;}
	.st1{fill:#FFFFFF;}
</style>
<sodipodi:namedview
   inkscape:window-maximized="1"
   inkscape:pageopacity="0.0"
   inkscape:current-layer="g892"
   inkscape:showpageshadow="false"
   inkscape:window-y="-8"
   inkscape:window-height="1017"
   inkscape:pageshadow="2"
   fit-margin-bottom="0"
   inkscape:window-x="-8"
   fit-margin-right="0"
   inkscape:window-width="1920"
   inkscape:document-units="px"
   id="base"
   borderopacity="1.0"
   bordercolor="#666666"
   fit-margin-left="0"
   inkscape:cx="125.60917"
   inkscape:zoom="5.4319211"
   showgrid="true"
   inkscape:cy="62.698837"
   fit-margin-top="0"
   borderlayer="false"
   showborder="true"
   showguides="false"
   pagecolor="#ffffff"
   inkscape:document-rotation="0">
	<inkscape:grid
   type="xygrid"
   id="grid4093"
   originy="-961.96023"
   originx="-10.04131" />
</sodipodi:namedview>
<g
   id="g30">
	
	
<g
   style="font-style:normal;font-weight:normal;font-size:43.7402px;line-height:1.25;font-family:sans-serif;fill:#000000;fill-opacity:1;stroke:none;stroke-width:1.09351"
   id="text1624"
   transform="scale(1.0935079,0.91448817)"
   aria-label="HELIFLIGHT"><g
     id="g892"><g
       id="g883"><g
         id="g3089"
         style="enable-background:new -21 39.39999999999999858 239.90000000000000568 62.29999999999999716;fill:#cccccc"
         inkscape:export-xdpi="35.392113"
         inkscape:export-ydpi="35.392113"
         transform="matrix(0.17570574,0,0,0.21010181,-2.9701212,50.514499)"><path
           sodipodi:nodetypes="cccc"
           inkscape:original-d="M 144.30283,148.30013 C 99.532977,163.75639 41.030702,212.78079 9.9932703,194.66891 20.996881,159.89967 38.182195,129.25156 65.156124,105.1292 107.12065,85.580018 124.61489,93.220031 148.69987,93.537012"
           inkscape:path-effect="#path-effect857"
           id="path855"
           d="m 144.30283,148.30013 c 0.25782,0.74679 -13.24009,6.26181 -34.53704,18.14964 -8.45111,4.72298 -24.240969,13.83983 -36.538646,20.1064 -9.980481,5.10372 -21.89867,10.79968 -34.792987,13.70718 -4.976082,1.12562 -10.338905,1.80119 -15.841275,1.41125 -5.063965,-0.94995 -10.241552,-2.89728 -14.9460255,-6.10092 2.2612635,-7.43137 4.9140995,-14.9414 8.0026005,-22.42262 12.20084,-29.55388 28.869645,-53.09946 47.967242,-70.35722 0,0 1.1e-5,0 1.1e-5,0 18.952645,-8.652971 35.213988,-12.608393 49.93863,-12.891383 6.70309,-0.09484 13.24146,0.570067 17.94583,1.132812 11.06093,1.318529 17.20548,1.986872 17.1987,2.501743 -0.007,0.514871 -6.34328,0.814688 -17.4279,0.358641 -4.62867,-0.187936 -11.23314,-0.444354 -17.56166,-0.03152 -13.99504,0.841991 -28.971255,5.018155 -47.014751,13.600427 -3e-6,0 -6e-6,0 -1e-5,0 -18.304716,16.19055 -34.314302,37.88773 -46.363954,65.38252 -3.050519,6.96065 -5.701253,13.96523 -7.991911,20.91706 3.183084,1.39914 6.957464,1.8429 10.74595,1.58234 4.650242,0.40059 9.423423,-0.17707 14.034794,-1.13328 12.004103,-2.49926 23.646901,-7.8413 33.649213,-12.62422 14.117147,-6.77459 26.472212,-13.52538 37.053209,-18.81306 21.8766,-10.94474 36.22216,-15.22258 36.47998,-14.47579 z"
           style="opacity:1;fill:#cccccc;fill-opacity:1;stroke:none;stroke-width:0;stroke-linecap:butt;stroke-linejoin:miter;stroke-miterlimit:4;stroke-dasharray:none;stroke-opacity:1" /><path
           inkscape:original-d="M 155.09556,106.3284 318.58545,26.382234"
           inkscape:path-effect="#path-effect861"
           id="path859"
           d="m 153.3887,107.16305 c -1.21243,-2.47944 34.80763,-22.586633 80.40193,-44.882138 45.59431,-22.295505 83.58239,-38.378114 84.79482,-35.898679 1.21244,2.479434 -34.80762,22.586632 -80.40193,44.882137 -45.5943,22.295505 -83.58238,38.37811 -84.79482,35.89868 z"
           style="fill:#cccccc;stroke:none;stroke-width:0.264583px;stroke-linecap:butt;stroke-linejoin:miter;stroke-opacity:1" /><path
           inkscape:original-d="m 77.947508,197.06729 81.944822,-41.572 h -27.98116"
           inkscape:path-effect="#path-effect865"
           id="path863"
           d="m 77.947508,197.06729 c -1.248696,-2.46137 22.013638,-15.22483 51.924852,-28.48985 10.61765,-4.70872 20.60658,-9.04448 29.06305,-12.8533 -16.03446,2.35588 -27.02424,1.55143 -27.02424,-0.22885 0,-1.78028 11.35304,-2.58473 28.93808,-0.22885 -8.0432,4.56174 -17.59959,10.14165 -27.92812,16.05929 -29.09674,16.67071 -53.724926,28.20293 -54.973622,25.74156 z"
           style="fill:#cccccc;stroke:none;stroke-width:0.264583px;stroke-linecap:butt;stroke-linejoin:miter;stroke-opacity:1" /><path
           inkscape:original-d="M -91.538358,155.09556 227.44683,-1.5989233"
           inkscape:path-effect="#path-effect873"
           id="path871"
           d="M -91.538358,155.09556 C -92.426691,153.28717 -21.694973,116.71992 66.344941,73.472243 154.38485,30.224565 226.5585,-3.4073196 227.44684,-1.5989272 228.33517,0.20946525 157.60345,36.776711 69.563539,80.02439 -18.476375,123.27207 -90.650025,156.90395 -91.538358,155.09556 Z"
           style="fill:#cccccc;stroke:none;stroke-width:0.264583px;stroke-linecap:butt;stroke-linejoin:miter;stroke-opacity:1" /><path
           inkscape:original-d="m 83.72155,180.80292 13.805149,4.45327"
           inkscape:path-effect="#path-effect913"
           id="path911"
           d="m 83.72155,180.80292 c 0.271145,-0.84055 3.583558,-0.5252 7.393781,0.7039 3.810222,1.2291 6.682517,2.90882 6.411372,3.74937 -0.271144,0.84055 -3.583558,0.5252 -7.39378,-0.7039 -3.810223,-1.2291 -6.682518,-2.90882 -6.411373,-3.74937 z"
           style="fill:#cccccc;stroke:none;stroke-width:0.264583px;stroke-linecap:butt;stroke-linejoin:miter;stroke-opacity:1" /><path
           sodipodi:nodetypes="ccc"
           inkscape:original-d="m 148.29402,93.964079 9.7972,19.594401 c -21.05089,14.71479 -16.99229,24.64682 -13.78839,34.74165"
           inkscape:path-effect="#path-effect921"
           id="path919"
           d="m 148.29402,93.964079 c 0.79474,-0.39737 5.49543,7.832601 11.19318,19.948691 0,0 1e-5,0 1e-5,0 -2.47288,1.9781 -5.13157,4.2371 -7.56507,6.73402 -1.38634,1.42246 -2.6476,2.86779 -3.78045,4.35889 -2.15947,2.66249 -3.65789,5.31888 -4.34224,8.02592 -0.68921,2.58558 -0.59975,5.2701 -0.35603,7.39809 0,0 0,0 0,0 0.5434,4.68849 1.3425,7.71712 0.85941,7.87044 -0.48309,0.15332 -2.11581,-2.37536 -3.45557,-7.3653 0,0 0,0 0,0 -0.6195,-2.30392 -1.03567,-5.34257 -0.44376,-8.64285 0.64173,-3.38068 2.24865,-6.69684 4.6656,-9.74751 1.16215,-1.37401 2.45801,-2.66036 3.87895,-3.88082 2.50022,-2.14748 5.20755,-3.93417 7.74718,-5.45946 0,0 0,0 0,0 -5.6706,-10.62063 -9.19595,-18.842741 -8.40121,-19.240111 z"
           style="fill:#cccccc;stroke:none;stroke-width:0.264583px;stroke-linecap:butt;stroke-linejoin:miter;stroke-opacity:1" /><path
           sodipodi:nodetypes="cc"
           inkscape:original-d="m 73.924347,81.94024 5.698064,11.396124"
           inkscape:path-effect="#path-effect929"
           id="path927"
           d="m 73.924347,81.94024 c 0.765272,-0.382636 2.662729,1.859552 4.235395,5.004883 1.572666,3.145332 2.227943,6.00861 1.462671,6.391246 -0.765272,0.382636 -2.662729,-1.859552 -4.235395,-5.004883 -1.572666,-3.145332 -2.227943,-6.00861 -1.462671,-6.391246 z"
           style="fill:#cccccc;stroke:none;stroke-width:0.264583px;stroke-linecap:butt;stroke-linejoin:miter;stroke-opacity:1" /><path
           sodipodi:nodetypes="ccc"
           inkscape:original-d="m 293.40242,18.787349 c -6.50312,10.020473 -3.63873,13.795946 -4.39703,19.98654 7.44208,11.129168 12.79715,19.138216 49.16688,23.584119"
           inkscape:path-effect="#path-effect960"
           id="path958"
           d="m 293.40242,18.787349 c 0.48392,0.314055 -2.88175,4.592919 -2.89373,11.523586 -0.07,2.207278 0.48845,4.831317 0.11446,8.07774 1.65002,2.219895 3.50505,4.770692 5.5511,6.843237 1.6976,1.869341 3.68238,3.593654 5.92474,5.087061 0.5408,0.360167 1.08908,0.701887 1.64332,1.025122 0,0 0,10e-7 0,10e-7 8.11766,4.79014 17.8281,6.877047 23.95107,8.194076 6.50529,1.399266 10.54372,2.289559 10.4789,2.819837 -0.0648,0.530278 -4.18177,0.633128 -10.91578,-0.07431 -6.41632,-0.674064 -16.44175,-2.31249 -25.51688,-7.483446 0,-10e-7 -10e-6,-10e-7 -10e-6,-10e-7 -0.62756,-0.36157 -1.24751,-0.745777 -1.85807,-1.152609 -2.53266,-1.687568 -4.7538,-3.664038 -6.6301,-5.821913 -2.34684,-2.879114 -4.27503,-6.04269 -5.86381,-8.666626 0.38684,-2.964893 -0.0564,-6.139087 0.20287,-9.03639 0.96779,-8.259591 5.328,-11.649419 5.81192,-11.335364 z"
           style="fill:#cccccc;stroke:none;stroke-width:0.264583px;stroke-linecap:butt;stroke-linejoin:miter;stroke-opacity:1" /><path
           inkscape:original-d="m 289.8442,11.483057 49.1609,33.916338"
           inkscape:path-effect="#path-effect3076"
           id="path3074"
           d="m 298.82717,20.522621 c -10.52641,-8.380602 -12.08193,-11.6347262 -3.47211,-7.263654 8.60977,4.371038 24.14066,14.720261 34.66708,23.100866 10.5264,8.380607 12.08192,11.634726 3.4721,7.26365 -8.60976,-4.371034 -24.14066,-14.720257 -34.66707,-23.100862 z"
           style="fill:#cccccc;stroke:none;stroke-width:0.304059px;stroke-linecap:butt;stroke-linejoin:miter;stroke-opacity:1" /></g><path
         id="path856"
         style="fill:#3d7fb2;stroke-width:1.09351;fill-opacity:1"
         d="m 60.670716,66.402318 c 0,-0.02916 0,-0.08748 -0.02916,-0.145801 -0.05832,-0.05832 -0.116641,-0.08748 -0.204122,-0.08748 -0.05832,0 -0.08748,0.02916 -0.145801,0.02916 -0.349922,0.05832 -0.699844,0.233282 -1.020607,0.408243 -0.408242,0.233281 -0.787325,0.495723 -1.108087,0.816485 l -0.262442,0.262442 c -0.116641,0.145801 -0.204121,0.291602 -0.262442,0.466563 0.174961,2.187015 0.233282,4.374031 0.233282,6.590206 v 1.253888 c -1.866253,0.379083 -3.761666,0.583204 -5.657079,0.816486 -0.437403,0.05832 -0.903966,0.116641 -1.341369,0.145801 0,-0.524884 0,-1.049767 -0.02916,-1.545491 v -1.720451 c 0,-2.303656 -0.02916,-4.636472 -0.204122,-6.940128 0,-0.02916 0,-0.08748 -0.02916,-0.145801 -0.05832,-0.05832 -0.116641,-0.08748 -0.204121,-0.08748 -0.05832,0 -0.08748,0.02916 -0.145801,0.02916 -0.349923,0.05832 -0.699845,0.233282 -1.020607,0.408243 -0.408243,0.233282 -0.787326,0.495724 -1.108088,0.816486 l -0.262442,0.262442 c -0.116641,0.145801 -0.204121,0.291602 -0.262442,0.466563 0.291602,3.819986 0.145801,7.669133 0.233282,11.518279 0.02916,1.224728 0.08748,2.449457 0.08748,3.703345 v 0.612365 c 0,1.428849 -0.05832,2.886859 -0.08748,4.344869 0,0.174962 0.116641,0.233282 0.262442,0.233282 0.379082,0 0.991447,-0.349922 1.137248,-0.437403 0.379082,-0.233282 0.787325,-0.495723 1.108087,-0.816486 l 0.262442,-0.262441 c 0.116641,-0.145801 0.204121,-0.291602 0.262442,-0.466564 0.05832,-1.662131 0.116641,-3.324262 0.116641,-4.986394 V 81.15738 c -0.02916,-0.379083 -0.02916,-0.729005 -0.02916,-1.108088 l 2.332816,-0.262442 c 1.078928,-0.11664 2.157855,-0.320762 3.236783,-0.495723 l 1.283048,-0.262442 v 9.127143 c -0.11664,0.08748 -0.174961,0.145801 -0.174961,0.174961 0,0.05832 0.08748,0.05832 0.174961,0.05832 0.379083,0 0.962287,-0.349922 1.108088,-0.437403 0.379083,-0.233281 0.787325,-0.495723 1.108088,-0.816485 l 0.262441,-0.262442 c 0.116641,-0.145801 0.204122,-0.291602 0.262442,-0.466563 0.08748,-3.557545 0.262442,-7.144249 0.320762,-10.701794 0.02916,-0.991446 0.02916,-1.982893 0.02916,-2.97434 0,-2.099535 -0.05832,-4.228229 -0.233282,-6.327764 z" /><path
         id="path858"
         style="fill:#3d7fb2;stroke-width:1.09351;fill-opacity:1"
         d="m 77.413228,66.6356 c -0.291602,-0.02916 -0.583204,-0.02916 -0.845646,-0.02916 h -3.761666 c -1.953734,0 -3.907467,0.02916 -5.83204,0.116641 -0.233282,0 -0.466563,0.02916 -0.699845,0.02916 l -0.204121,0.08748 c -0.262442,0.08748 -0.524884,0.204122 -0.758166,0.349923 -0.408242,0.233281 -0.787325,0.495723 -1.108087,0.816485 l -0.262442,0.262442 c -0.116641,0.145801 -0.204121,0.291602 -0.262442,0.466563 0.02916,0.379083 0.02916,0.758166 0.02916,1.137248 v 2.128695 c 0,1.982894 -0.02916,3.965787 -0.02916,5.948681 -0.02916,2.041214 -0.116641,4.053268 -0.116641,6.094482 0,1.253888 -0.02916,2.536937 -0.11664,3.790826 v 0.145801 c 0,0.174961 0.11664,0.233281 0.262441,0.233281 0.145801,0 0.320763,-0.05832 0.408243,-0.08748 0.145801,-0.02916 0.291602,-0.02916 0.437403,-0.02916 0.291602,0 0.583204,-0.02916 0.845646,-0.02916 0.845646,0 1.720452,0.02916 2.566098,0.02916 1.895413,0.02916 3.790826,0.05832 5.715399,0.116641 l 1.48717,0.05832 c 0.08748,0 0.174961,0 0.262442,0.02916 0.233282,0 0.379083,-0.262442 0.437403,-0.408243 0.174961,-0.349922 0.291602,-0.729005 0.379083,-1.078927 0.08748,-0.379083 0.145801,-0.787326 0.145801,-1.166408 0,-0.116641 -0.02916,-0.495724 -0.204122,-0.554044 h -0.349922 c -0.262442,-0.02916 -0.495724,-0.02916 -0.758165,-0.02916 -0.816486,-0.02916 -1.632972,-0.05832 -2.449457,-0.05832 -1.924574,-0.05832 -3.849147,-0.08748 -5.77372,-0.116641 h -0.320762 c 0.02916,-0.699844 0.05832,-1.399689 0.05832,-2.128694 0,-1.574651 0.08748,-3.178462 0.08748,-4.753113 h 2.88686 l 0.845645,-0.08748 h 1.224729 c 0.262442,0.02916 0.554044,0 0.816486,0.05832 h 0.145801 c 0.262441,0 0.495723,-0.116641 0.699844,-0.204121 0.437403,-0.204122 0.845646,-0.437403 1.195569,-0.729005 0.291602,-0.233282 0.583204,-0.495724 0.758165,-0.816486 0.05832,-0.05832 0.08748,-0.174961 0.08748,-0.262442 0,-0.08748 -0.02916,-0.145801 -0.145801,-0.145801 -0.233281,-0.05832 -0.495723,-0.05832 -0.729005,-0.05832 h -1.253888 c -1.108088,0 -2.216176,0.02916 -3.324263,0.05832 -1.020607,0.02916 -2.012054,0.02916 -3.032661,0.116641 -0.02916,0 -0.08748,0 -0.145801,0.02916 0.02916,-1.749612 0.02916,-3.499224 0.02916,-5.248836 0,-0.291602 0,-0.554044 0.02916,-0.816486 0.204122,-0.02916 0.437403,-0.02916 0.641525,-0.02916 1.020607,-0.02916 2.041214,-0.05832 3.061821,-0.05832 1.078927,-0.02916 2.157855,-0.02916 3.236782,-0.02916 0.787326,0 1.603811,0 2.391137,0.02916 0.174961,0 0.379082,0 0.554043,0.02916 0.204122,0 0.349923,-0.233282 0.437403,-0.379083 0,-0.02916 0.291602,-0.729005 0.379083,-1.108087 0.08748,-0.379083 0.145801,-0.787326 0.145801,-1.166408 0,-0.116641 -0.02916,-0.524884 -0.204121,-0.554044 z" /><path
         id="path860"
         style="fill:#3d7fb2;stroke-width:1.09351;fill-opacity:1"
         d="m 91.634294,85.53141 c 0,-0.08748 -0.02916,-0.524884 -0.204121,-0.554044 -0.845646,-0.05832 -1.691292,-0.05832 -2.536938,-0.05832 -1.137248,0 -2.303656,0.02916 -3.440903,0.02916 l -2.595258,0.08748 c 0.05832,-0.641524 0.05832,-1.312209 0.08748,-1.953733 0.05832,-1.895413 0.116641,-3.761666 0.145801,-5.657079 0.02916,-2.012054 0.05832,-3.994947 0.05832,-6.007001 v -4.111588 c 0,-0.174962 0,-0.349923 -0.02916,-0.554044 0,-0.02916 -0.02916,-0.08748 -0.02916,-0.145801 -0.05832,-0.05832 -0.11664,-0.08748 -0.204121,-0.08748 -0.05832,0 -0.08748,0 -0.145801,0.02916 -0.349922,0.05832 -0.699845,0.233282 -1.020607,0.408243 -0.408243,0.233282 -0.787325,0.495724 -1.137248,0.816486 l -0.233281,0.262442 c -0.145801,0.145801 -0.233282,0.291602 -0.262442,0.466563 v 0.495723 c 0,0.174961 0,0.320762 0.02916,0.466563 v 1.953734 c 0,1.866253 -0.02916,3.732506 -0.05832,5.627919 v 6.036161 c -0.116641,1.283049 -0.145801,2.566098 -0.233282,3.849146 -0.05832,0.233282 -0.08748,0.524884 -0.08748,0.758166 v 0.11664 c 0,0.08748 0,0.116641 0.02916,0.145801 0.02916,0.116641 0.02916,0.379083 0.174961,0.379083 0.670684,-0.08748 1.341369,-0.08748 1.982893,-0.116641 h 3.324263 c 1.049767,-0.116641 2.099535,-0.116641 3.149302,-0.116641 0.758165,0 1.51633,0 2.274495,0.08748 0.204122,0 0.349923,-0.233282 0.437403,-0.379083 0,-0.02916 0.291602,-0.729005 0.379083,-1.108087 0.08748,-0.379083 0.145801,-0.787326 0.145801,-1.166408 z" /><path
         id="path862"
         style="fill:#3d7fb2;stroke-width:1.09351;fill-opacity:1"
         d="m 106.26952,68.764295 c 0.0875,-0.379083 0.1458,-0.787326 0.1458,-1.166408 0,-0.116641 -0.0292,-0.524884 -0.20412,-0.554044 -0.61236,-0.05832 -1.22472,-0.05832 -1.83709,-0.05832 -0.96229,-0.02916 -1.95373,-0.02916 -2.91602,-0.02916 h -5.336316 l -0.583204,0.08748 c -0.233281,0.02916 -0.349922,0.233281 -0.437403,0.408243 -0.174961,0.349922 -0.291602,0.729005 -0.379082,1.078927 -0.08748,0.379083 -0.145801,0.787325 -0.145801,1.166408 0,0.08748 0.02916,0.554044 0.204121,0.554044 h 3.557544 v 1.049767 c 0,0.699845 -0.02916,1.42885 -0.05832,2.128695 -0.08748,1.982893 -0.174961,3.965787 -0.291602,5.91952 -0.116641,1.837093 -0.233282,3.674186 -0.437403,5.511278 l -1.370529,0.08748 c -0.641525,0.05832 -1.283049,0.08748 -1.895413,0.174961 -0.116641,0.02916 -0.204122,0.05832 -0.291602,0.05832 -0.05832,0.05832 -0.08748,0.116641 -0.145801,0.145801 -0.116641,0.174962 -0.204122,0.349923 -0.291602,0.524884 -0.145801,0.408243 -0.262442,0.816486 -0.320763,1.224728 -0.02916,0.204122 -0.05832,0.408243 -0.05832,0.612365 0,0.11664 0,0.262441 0.02916,0.379082 l 0.08748,0.204122 c 0.02916,0.05832 0.08748,0.08748 0.145801,0.08748 0.02916,0 0.05832,0 0.08748,-0.02916 0.495724,-0.116641 1.020607,-0.116641 1.516331,-0.145801 0.991447,-0.08748 1.953733,-0.145801 2.91602,-0.204121 1.020607,-0.05832 2.012054,-0.08748 3.003503,-0.116641 h 0.96228 c 0.32077,0 0.61237,0 0.93313,0.05832 0.0583,0 0.0875,0 0.11664,0.02916 0.20412,0 0.34992,-0.291602 0.4374,-0.408242 0.17497,-0.349923 0.29161,-0.729005 0.37909,-1.078928 0.0875,-0.379082 0.1458,-0.787325 0.1458,-1.166408 -0.0292,-0.145801 -0.0292,-0.495723 -0.20412,-0.554044 -0.20412,-0.05832 -0.40825,-0.02916 -0.58321,-0.05832 h -1.04976 c -0.58321,0 -1.13725,0.02916 -1.6913,0.02916 l 0.0875,-0.554044 c 0.0875,-0.729005 0.14581,-1.45801 0.20413,-2.187015 0.17496,-1.982893 0.2916,-3.965787 0.40824,-5.94868 0.0875,-1.837093 0.17496,-3.674186 0.23328,-5.511278 0.0292,-0.116641 0.0292,-0.262442 0.0292,-0.379083 0.96229,0 1.95373,0 2.91602,0.02916 0.37908,0.02916 0.78733,0.02916 1.16641,0.08748 0.20412,0 0.34992,-0.233282 0.4374,-0.379083 0,-0.02916 0.2916,-0.729005 0.37908,-1.108087 z" /><path
         id="path864"
         style="fill:#cccccc;stroke-width:1.09351"
         d="m 120.73344,67.189644 c -0.49573,-0.08748 -0.99145,-0.116641 -1.48717,-0.116641 -0.43741,0 -0.87481,0.02916 -1.31221,0.02916 -1.10809,0.05832 -2.21618,0.145801 -3.32426,0.262442 l -1.86626,0.204121 c -0.34992,0.02916 -0.8748,0.320763 -1.07892,0.408243 -0.32077,0 -0.93313,0.612364 -1.16641,0.845646 l -0.26244,0.262442 c -0.14581,0.145801 -0.23329,0.291602 -0.26245,0.466563 l -0.2916,4.34487 c -0.1458,2.128695 -0.32076,4.286549 -0.4374,6.415244 0,0.116641 -0.0292,0.204121 -0.0292,0.320762 -0.11664,1.720452 -0.20412,3.440904 -0.2916,5.161356 0,0.349922 -0.0292,0.699844 -0.0292,1.078927 0,0.204121 0,0.437403 0.0292,0.670685 0.0583,0.02916 0.0875,0.05832 0.1458,0.05832 h 0.1458 c 0.11664,0 0.23328,-0.02916 0.34992,-0.05832 0.40824,-0.145801 0.78733,-0.349923 1.16641,-0.583204 0.34992,-0.262442 0.69984,-0.524884 0.96229,-0.845646 l 0.17496,-0.262442 c 0.0583,-0.05832 0.0875,-0.116641 0.0875,-0.204121 0,-0.02916 0,-0.08748 -0.0292,-0.116641 v -0.291602 c 0,-0.233282 0,-0.466563 0.0292,-0.699845 l 0.20412,-5.452957 4.72395,-0.408243 c 0.58321,-0.145801 1.19557,-0.262442 1.80793,-0.262442 0.23329,-0.02916 0.34993,-0.233282 0.43741,-0.408243 0.17496,-0.320762 0.2916,-0.699845 0.37908,-1.078927 0.0875,-0.379083 0.1458,-0.787326 0.1458,-1.166408 -0.0292,-0.08748 -0.0292,-0.524884 -0.20412,-0.524884 -0.81649,0 -1.69129,0.145801 -2.50778,0.233282 -1.10809,0.145801 -2.21617,0.262442 -3.32426,0.379082 -0.32076,0.02916 -0.67069,0.05832 -0.99145,0.05832 h -0.17496 l 0.34992,-5.248836 c 1.31221,-0.145801 2.59526,-0.262442 3.90747,-0.349923 0.61236,-0.02916 1.25389,-0.05832 1.86625,-0.05832 0.46657,0 0.96229,0.02916 1.42885,0.116641 0.23328,0 0.37909,-0.262442 0.43741,-0.408243 0.17496,-0.320762 0.2916,-0.699845 0.37908,-1.078928 0.0875,-0.379082 0.1458,-0.787325 0.1458,-1.166408 -0.0292,-0.11664 -0.0292,-0.495723 -0.23328,-0.524883 z" /><path
         id="path866"
         style="fill:#cccccc;stroke-width:1.09351"
         d="m 134.17857,85.53141 c 0,-0.08748 -0.0292,-0.524884 -0.20412,-0.554044 -0.84565,-0.05832 -1.69129,-0.05832 -2.53694,-0.05832 -1.13725,0 -2.30365,0.02916 -3.4409,0.02916 l -2.59526,0.08748 c 0.0583,-0.641524 0.0583,-1.312209 0.0875,-1.953733 0.0583,-1.895413 0.11664,-3.761666 0.1458,-5.657079 0.0292,-2.012054 0.0583,-3.994947 0.0583,-6.007001 v -4.111588 c 0,-0.174962 0,-0.349923 -0.0292,-0.554044 0,-0.02916 -0.0292,-0.08748 -0.0292,-0.145801 -0.0583,-0.05832 -0.11664,-0.08748 -0.20412,-0.08748 -0.0583,0 -0.0875,0 -0.1458,0.02916 -0.34992,0.05832 -0.69984,0.233282 -1.02061,0.408243 -0.40824,0.233282 -0.78732,0.495724 -1.13724,0.816486 l -0.23329,0.262442 c -0.1458,0.145801 -0.23328,0.291602 -0.26244,0.466563 v 0.495723 c 0,0.174961 0,0.320762 0.0292,0.466563 v 1.953734 c 0,1.866253 -0.0292,3.732506 -0.0583,5.627919 v 6.036161 c -0.11664,1.283049 -0.1458,2.566098 -0.23328,3.849146 -0.0583,0.233282 -0.0875,0.524884 -0.0875,0.758166 v 0.11664 c 0,0.08748 0,0.116641 0.0292,0.145801 0.0292,0.116641 0.0292,0.379083 0.17496,0.379083 0.67069,-0.08748 1.34137,-0.08748 1.98289,-0.116641 h 3.32427 c 1.04976,-0.116641 2.09953,-0.116641 3.1493,-0.116641 0.75816,0 1.51633,0 2.27449,0.08748 0.20413,0 0.34993,-0.233282 0.43741,-0.379083 0,-0.02916 0.2916,-0.729005 0.37908,-1.108087 0.0875,-0.379083 0.1458,-0.787326 0.1458,-1.166408 z" /><path
         id="path868"
         style="fill:#cccccc;stroke-width:1.09351"
         d="m 148.8138,68.764295 c 0.0875,-0.379083 0.1458,-0.787326 0.1458,-1.166408 0,-0.116641 -0.0292,-0.524884 -0.20412,-0.554044 -0.61237,-0.05832 -1.22473,-0.05832 -1.8371,-0.05832 -0.96228,-0.02916 -1.95373,-0.02916 -2.91602,-0.02916 h -5.33631 l -0.58321,0.08748 c -0.23328,0.02916 -0.34992,0.233281 -0.4374,0.408243 -0.17496,0.349922 -0.2916,0.729005 -0.37908,1.078927 -0.0875,0.379083 -0.1458,0.787325 -0.1458,1.166408 0,0.08748 0.0292,0.554044 0.20412,0.554044 h 3.55754 v 1.049767 c 0,0.699845 -0.0292,1.42885 -0.0583,2.128695 -0.0875,1.982893 -0.17496,3.965787 -0.2916,5.91952 -0.11664,1.837093 -0.23328,3.674186 -0.4374,5.511278 l -1.37053,0.08748 c -0.64153,0.05832 -1.28305,0.08748 -1.89542,0.174961 -0.11664,0.02916 -0.20412,0.05832 -0.2916,0.05832 -0.0583,0.05832 -0.0875,0.116641 -0.1458,0.145801 -0.11664,0.174962 -0.20412,0.349923 -0.2916,0.524884 -0.1458,0.408243 -0.26244,0.816486 -0.32076,1.224728 -0.0292,0.204122 -0.0583,0.408243 -0.0583,0.612365 0,0.11664 0,0.262441 0.0292,0.379082 l 0.0875,0.204122 c 0.0292,0.05832 0.0875,0.08748 0.1458,0.08748 0.0292,0 0.0583,0 0.0875,-0.02916 0.49572,-0.116641 1.02061,-0.116641 1.51633,-0.145801 0.99145,-0.08748 1.95373,-0.145801 2.91602,-0.204121 1.02061,-0.05832 2.01205,-0.08748 3.0035,-0.116641 h 0.96229 c 0.32076,0 0.61236,0 0.93312,0.05832 0.0583,0 0.0875,0 0.11664,0.02916 0.20413,0 0.34993,-0.291602 0.43741,-0.408242 0.17496,-0.349923 0.2916,-0.729005 0.37908,-1.078928 0.0875,-0.379082 0.1458,-0.787325 0.1458,-1.166408 -0.0292,-0.145801 -0.0292,-0.495723 -0.20412,-0.554044 -0.20412,-0.05832 -0.40824,-0.02916 -0.5832,-0.05832 h -1.04977 c -0.58321,0 -1.13725,0.02916 -1.69129,0.02916 l 0.0875,-0.554044 c 0.0875,-0.729005 0.1458,-1.45801 0.20412,-2.187015 0.17496,-1.982893 0.2916,-3.965787 0.40824,-5.94868 0.0875,-1.837093 0.17496,-3.674186 0.23328,-5.511278 0.0292,-0.116641 0.0292,-0.262442 0.0292,-0.379083 0.96229,0 1.95374,0 2.91602,0.02916 0.37909,0.02916 0.78733,0.02916 1.16641,0.08748 0.20412,0 0.34992,-0.233282 0.4374,-0.379083 0,-0.02916 0.29161,-0.729005 0.37909,-1.108087 z" /><path
         id="path870"
         style="fill:#cccccc;stroke-width:1.09351"
         d="m 164.21813,76.200146 c 0,-0.08748 -0.0292,-0.554044 -0.20412,-0.554044 -1.34137,0.02916 -2.65358,0.02916 -3.96579,0.02916 -1.1664,0.02916 -2.36197,0.02916 -3.52838,0.02916 -0.23328,0 -0.34992,0.262442 -0.4374,0.408243 -0.17497,0.349923 -0.29161,0.729005 -0.37909,1.078928 -0.0875,0.379082 -0.1458,0.787325 -0.1458,1.166408 0,0.08748 0.0292,0.554043 0.20412,0.554043 1.34137,-0.02916 2.65358,-0.02916 3.96579,-0.02916 0.4374,-0.02916 0.87481,-0.02916 1.34137,-0.02916 0,0.05832 -0.0292,0.08748 -0.0292,0.145801 -0.0583,0.495723 -0.0875,0.991447 -0.17496,1.45801 -0.17496,1.166408 -0.46656,2.332816 -0.90397,3.411743 -0.26244,0.583204 -0.55404,1.166408 -0.90396,1.691292 -0.0875,0.05832 -0.1458,0.145801 -0.20412,0.233282 -0.0583,0.05832 -0.11665,0.11664 -0.14581,0.174961 -0.0583,0.05832 -0.0875,0.08748 -0.11664,0.08748 -0.11664,0.05832 -0.23328,0.08748 -0.34992,0.116641 -0.37908,0.08748 -0.78732,0.145801 -1.16641,0.145801 -0.90396,0 -1.80793,-0.204121 -2.59525,-0.670684 -1.74962,-1.049768 -2.59526,-3.032661 -2.94519,-4.986395 -0.0292,-0.11664 -0.0583,-0.233281 -0.0583,-0.379082 -0.11664,-0.729005 -0.1458,-1.45801 -0.1458,-2.187015 0,-1.691292 0.26245,-3.411744 0.69985,-5.044715 0.1458,-0.554044 0.32076,-1.108087 0.52488,-1.632971 0.23328,-0.495724 0.49573,-0.991447 0.81649,-1.42885 0.0583,-0.116641 0.1458,-0.204121 0.23328,-0.320762 l 0.11664,-0.08748 0.11664,-0.145801 c 0.0292,0 0.0875,-0.02916 0.11664,-0.05832 0.0292,0 0.0875,0 0.11664,-0.02916 l 0.32076,-0.08748 c 0.40825,-0.116641 0.84565,-0.145801 1.28305,-0.174961 1.22473,0.02916 2.4203,0.349922 3.49923,0.962286 0.61236,0.379083 1.16641,0.816486 1.60381,1.39969 0.0292,0.05832 0.11664,0.08748 0.20412,0.08748 0.1458,0 0.32076,-0.05832 0.4374,-0.08748 0.37909,-0.145801 0.78733,-0.349922 1.13725,-0.612364 0.34992,-0.233282 0.69985,-0.495724 0.96229,-0.816486 0.0583,-0.08748 0.26244,-0.320762 0.26244,-0.495723 0,-0.02916 0,-0.08748 -0.0292,-0.116641 -0.52488,-0.699845 -1.22473,-1.195568 -2.01206,-1.632971 -0.78732,-0.408243 -1.69129,-0.699845 -2.59525,-0.816486 -0.26244,-0.02916 -0.55405,-0.05832 -0.81649,-0.05832 -0.81648,0 -1.63297,0.145801 -2.4203,0.379082 -0.69984,0.233282 -1.39968,0.554044 -2.01205,0.933127 -0.81648,0.495723 -1.60381,1.049767 -2.27449,1.749612 -0.55405,0.554044 -1.04977,1.137248 -1.42885,1.837092 -0.37909,0.612365 -0.64153,1.253889 -0.87481,1.953734 -0.40824,1.166408 -0.69985,2.420297 -0.84565,3.645025 -0.11664,0.845646 -0.17496,1.662131 -0.17496,2.507777 0,0.379083 0,0.787326 0.0292,1.166408 0.0875,1.137248 0.2916,2.303656 0.67069,3.382583 0.34992,0.933127 0.84564,1.807933 1.54549,2.507778 0.69984,0.699844 1.63297,1.195568 2.59526,1.399689 0.4374,0.08748 0.90396,0.145801 1.34137,0.145801 0.75816,0 1.51633,-0.116641 2.21617,-0.349922 0.81649,-0.262442 1.57465,-0.670685 2.30366,-1.137248 0.61236,-0.379083 1.19556,-0.845646 1.69129,-1.341369 0.78732,-0.758165 1.42885,-1.662132 1.92457,-2.624418 0.40824,-0.845646 0.72901,-1.749612 0.96229,-2.653578 0.23328,-0.991447 0.40824,-2.012054 0.49572,-3.032661 0.0875,-0.437403 0.1458,-0.787326 0.1458,-1.166408 z" /><path
         id="path872"
         style="fill:#cccccc;stroke-width:1.09351"
         d="m 179.36185,66.402318 c 0,-0.02916 0,-0.08748 -0.0292,-0.145801 -0.0583,-0.05832 -0.11664,-0.08748 -0.20412,-0.08748 -0.0583,0 -0.0875,0.02916 -0.14581,0.02916 -0.34992,0.05832 -0.69984,0.233282 -1.0206,0.408243 -0.40824,0.233281 -0.78733,0.495723 -1.10809,0.816485 l -0.26244,0.262442 c -0.11664,0.145801 -0.20412,0.291602 -0.26244,0.466563 0.17496,2.187015 0.23328,4.374031 0.23328,6.590206 v 1.253888 c -1.86625,0.379083 -3.76167,0.583204 -5.65708,0.816486 -0.4374,0.05832 -0.90397,0.116641 -1.34137,0.145801 0,-0.524884 0,-1.049767 -0.0292,-1.545491 v -1.720451 c 0,-2.303656 -0.0292,-4.636472 -0.20412,-6.940128 0,-0.02916 0,-0.08748 -0.0292,-0.145801 -0.0583,-0.05832 -0.11664,-0.08748 -0.20412,-0.08748 -0.0583,0 -0.0875,0.02916 -0.1458,0.02916 -0.34993,0.05832 -0.69985,0.233282 -1.02061,0.408243 -0.40824,0.233282 -0.78733,0.495724 -1.10809,0.816486 l -0.26244,0.262442 c -0.11664,0.145801 -0.20412,0.291602 -0.26244,0.466563 0.2916,3.819986 0.1458,7.669133 0.23328,11.518279 0.0292,1.224728 0.0875,2.449457 0.0875,3.703345 v 0.612365 c 0,1.428849 -0.0583,2.886859 -0.0875,4.344869 0,0.174962 0.11664,0.233282 0.26244,0.233282 0.37908,0 0.99145,-0.349922 1.13725,-0.437403 0.37908,-0.233282 0.78732,-0.495723 1.10809,-0.816486 l 0.26244,-0.262441 c 0.11664,-0.145801 0.20412,-0.291602 0.26244,-0.466564 0.0583,-1.662131 0.11664,-3.324262 0.11664,-4.986394 V 81.15738 c -0.0292,-0.379083 -0.0292,-0.729005 -0.0292,-1.108088 l 2.33282,-0.262442 c 1.07892,-0.11664 2.15785,-0.320762 3.23678,-0.495723 l 1.28305,-0.262442 v 9.127143 c -0.11664,0.08748 -0.17496,0.145801 -0.17496,0.174961 0,0.05832 0.0875,0.05832 0.17496,0.05832 0.37908,0 0.96228,-0.349922 1.10809,-0.437403 0.37908,-0.233281 0.78732,-0.495723 1.10808,-0.816485 l 0.26244,-0.262442 c 0.11665,-0.145801 0.20413,-0.291602 0.26245,-0.466563 0.0875,-3.557545 0.26244,-7.144249 0.32076,-10.701794 0.0292,-0.991446 0.0292,-1.982893 0.0292,-2.97434 0,-2.099535 -0.0583,-4.228229 -0.23328,-6.327764 z" /><path
         id="path874"
         style="fill:#cccccc;stroke-width:1.09351"
         d="m 196.65839,70.688868 c 0.52489,0 1.02061,0 1.54549,-0.02916 0.26245,0 0.52489,0 0.78733,-0.02916 0.23328,-0.05832 0.32076,-0.233281 0.4374,-0.408242 0.17496,-0.349923 0.29161,-0.729005 0.37909,-1.078928 0.0875,-0.379082 0.1458,-0.787325 0.1458,-1.166408 0,-0.05832 -0.0292,-0.583204 -0.20412,-0.554044 -0.37909,0.05832 -0.75817,0.05832 -1.13725,0.05832 -0.72901,0.02916 -1.45801,0.02916 -2.18702,0.02916 -1.98289,0 -3.96578,-0.02916 -5.94868,-0.05832 h -5.62792 c -0.78732,-0.08748 -1.54549,-0.116641 -2.30365,-0.116641 -0.23328,0.02916 -0.34992,0.233281 -0.43741,0.408243 -0.17496,0.349922 -0.2916,0.729005 -0.37908,1.078927 -0.0875,0.379083 -0.1458,0.787325 -0.1458,1.166408 0,0.08748 0.0292,0.554044 0.20412,0.554044 h 0.96229 c 0.78732,0 1.54549,0.02916 2.30365,0.02916 1.34137,0 2.68274,0.02916 4.02411,0.05832 -0.0292,0.174962 -0.0583,0.349923 -0.0583,0.524884 -0.0875,0.699845 -0.1458,1.37053 -0.20412,2.041214 -0.1458,1.924573 -0.26244,3.878307 -0.34992,5.80288 -0.0875,1.953733 -0.17496,3.936627 -0.23328,5.89036 -0.0292,0.729005 -0.0292,1.45801 -0.0292,2.187015 0,0.437403 0,0.845646 0.0292,1.253889 l 0.0583,0.262442 0.11664,0.05832 h 0.1458 c 0.11664,0 0.26244,-0.02916 0.37908,-0.05832 0.37908,-0.145801 0.78733,-0.349923 1.13725,-0.612364 0.34992,-0.233282 0.69984,-0.495724 0.96229,-0.816486 l 0.17496,-0.262442 c 0.0583,-0.05832 0.0875,-0.116641 0.0875,-0.204121 0,-0.05832 0,-0.08748 -0.0292,-0.145801 -0.0292,-0.349923 -0.0292,-0.699845 -0.0292,-1.078928 0,-0.699844 0.0292,-1.428849 0.0292,-2.128694 0,-1.953734 0.1458,-3.907467 0.23328,-5.8612 0.0875,-1.953734 0.20412,-3.878307 0.34992,-5.832041 l 0.0875,-0.991446 c 1.57465,0.02916 3.1493,0.02916 4.72395,0.02916 z" /></g></g></g></g>
</svg>
