{
    "asset" : {
        "generator" : "Khronos glTF Blender I/O v1.3.48",
        "version" : "2.0"
    },
    "scene" : 0,
    "scenes" : [
        {
            "name" : "Scene",
            "nodes" : [
                0
            ]
        }
    ],
    "nodes" : [
        {
            "mesh" : 0,
            "name" : "LOD3spShape.001",
            "rotation" : [
                0,
                0.7071066498756409,
                0,
                0.7071068286895752
            ],
            "scale" : [
                0.6000000238418579,
                0.6000000238418579,
                0.6000000238418579
            ],
            "translation" : [
                0.13408222794532776,
                -0.2890898585319519,
                -0.12362933158874512
            ]
        }
    ],
    "materials" : [
        {
            "emissiveFactor" : [
                0,
                0,
                0
            ],
            "name" : "blinn3-fx.001",
            "pbrMetallicRoughness" : {
                "baseColorTexture" : {
                    "index" : 0,
                    "texCoord" : 0
                },
                "metallicFactor" : 0,
                "roughnessFactor" : 1
            }
        }
    ],
    "meshes" : [
        {
            "name" : "LOD3spShape.001",
            "primitives" : [
                {
                    "attributes" : {
                        "POSITION" : 0,
                        "NORMAL" : 1,
                        "TEXCOORD_0" : 2
                    },
                    "indices" : 3,
                    "material" : 0
                }
            ]
        }
    ],
    "textures" : [
        {
            "source" : 0
        }
    ],
    "images" : [
        {
            "mimeType" : "image/png",
            "name" : "fallback",
            "uri" : "fallback.png"
        }
    ],
    "accessors" : [
        {
            "bufferView" : 0,
            "componentType" : 5126,
            "count" : 2399,
            "max" : [
                80.9278564453125,
                96.22564697265625,
                57.775569915771484
            ],
            "min" : [
                -84.55054473876953,
                -57.81498718261719,
                -57.47782516479492
            ],
            "type" : "VEC3"
        },
        {
            "bufferView" : 1,
            "componentType" : 5126,
            "count" : 2399,
            "type" : "VEC3"
        },
        {
            "bufferView" : 2,
            "componentType" : 5126,
            "count" : 2399,
            "type" : "VEC2"
        },
        {
            "bufferView" : 3,
            "componentType" : 5123,
            "count" : 12636,
            "type" : "SCALAR"
        }
    ],
    "bufferViews" : [
        {
            "buffer" : 0,
            "byteLength" : 28788,
            "byteOffset" : 0
        },
        {
            "buffer" : 0,
            "byteLength" : 28788,
            "byteOffset" : 28788
        },
        {
            "buffer" : 0,
            "byteLength" : 19192,
            "byteOffset" : 57576
        },
        {
            "buffer" : 0,
            "byteLength" : 25272,
            "byteOffset" : 76768
        }
    ],
    "buffers" : [
        {
            "byteLength" : 102040,
            "uri" : "fallback.bin"
        }
    ]
}
